<svg xmlns="http://www.w3.org/2000/svg" width="71.615" height="111.257" viewBox="0 0 71.615 111.257"><g transform="translate(-91.217)"><g transform="translate(91.217)"><path d="M159.5,58.512a3.331,3.331,0,0,0,3.331-3.331V37.269a3.333,3.333,0,0,0-.626-1.945L144.53,10.746a3.331,3.331,0,0,0-2.7-1.386H130.355V3.331a3.331,3.331,0,0,0-6.662,0V9.36H112.223a3.331,3.331,0,0,0-2.7,1.386L91.843,35.324a3.331,3.331,0,0,0-.626,1.945v70.657a3.331,3.331,0,0,0,3.331,3.331H159.5a3.331,3.331,0,0,0,3.331-3.331V74.164a3.331,3.331,0,0,0-6.662,0V104.6H97.879V58.512ZM97.879,38.342,113.93,16.021h9.763v4.627a13.838,13.838,0,1,0,6.662,0V16.021h9.763l16.051,22.321V51.85H97.879V38.342ZM127.024,26.9a7.176,7.176,0,1,1-7.176,7.176A7.184,7.184,0,0,1,127.024,26.9Z" transform="translate(-91.217)" fill="#182966"/><path d="M278.98,356.141c-4.028,0-6.246,2.021-6.246,5.691v5.259c0,3.67,2.218,5.691,6.246,5.691,3.97,0,6.246-2.074,6.246-5.691v-5.259C285.227,358.215,282.95,356.141,278.98,356.141Zm-1.124,5.691c0-.792.3-1.087,1.124-1.087.964,0,1.161.434,1.161,1.087v5.259c0,.653-.2,1.087-1.161,1.087-.819,0-1.124-.294-1.124-1.087Z" transform="translate(-233.291 -278.752)" fill="#ffb50c"/><path d="M229.306,294.269a2.328,2.328,0,0,0-2.177,1.314l-13,26.7a2.33,2.33,0,0,0-.258,1.013,2.747,2.747,0,0,0,2.765,2.654,2.514,2.514,0,0,0,2.288-1.314l13.034-26.7a2.3,2.3,0,0,0,.221-1.013A2.816,2.816,0,0,0,229.306,294.269Z" transform="translate(-187.221 -230.325)" fill="#ffb50c"/><path d="M188.021,301.257c-4.028,0-6.246,2.021-6.246,5.691v5.259c0,3.67,2.218,5.691,6.246,5.691,3.97,0,6.246-2.074,6.246-5.691v-5.259C194.268,303.331,191.991,301.257,188.021,301.257Zm-1.124,5.691c0-.792.3-1.087,1.124-1.087.964,0,1.161.434,1.161,1.087v5.259c0,.653-.2,1.087-1.161,1.087-.819,0-1.124-.294-1.124-1.087v-5.259Z" transform="translate(-162.097 -235.794)" fill="#ffb50c"/></g></g></svg>