<svg xmlns="http://www.w3.org/2000/svg" width="109.562" height="101.865" viewBox="0 0 109.562 101.865">
  <g id="bag" transform="translate(0 -17.984)">
    <g id="Group_336" data-name="Group 336" transform="translate(0 17.984)">
      <path id="Path_968" data-name="Path 968" d="M188.019,45.995h-6.358V33.088a8.756,8.756,0,0,0-8.746-8.746H152.26a8.756,8.756,0,0,0-8.746,8.746V45.995h-6.358V33.088a15.121,15.121,0,0,1,15.1-15.1h20.655a15.121,15.121,0,0,1,15.1,15.1V45.995Z" transform="translate(-107.807 -17.984)" fill="#182966"/>
      <path id="Path_969" data-name="Path 969" d="M96.44,188.669H13.122A13.137,13.137,0,0,1,0,175.547V118.662A13.137,13.137,0,0,1,13.122,105.54H96.44a13.137,13.137,0,0,1,13.122,13.122v56.885A13.138,13.138,0,0,1,96.44,188.669ZM13.122,111.9a6.772,6.772,0,0,0-6.764,6.764v56.885a6.772,6.772,0,0,0,6.764,6.764H96.44a6.772,6.772,0,0,0,6.764-6.764V118.662A6.772,6.772,0,0,0,96.44,111.9Z" transform="translate(0 -86.804)" fill="#182966"/>
    </g>
    <path id="Path_970" data-name="Path 970" d="M28.781,120.122a8.893,8.893,0,0,0-8.657,10.991,46.277,46.277,0,0,0,44.761,35.1H75.9a46.277,46.277,0,0,0,44.761-35.1,8.893,8.893,0,0,0-8.657-10.991Z" transform="translate(-15.613 -80.282)" fill="#ffc226"/>
    <path id="Path_971" data-name="Path 971" d="M64.223,157.719H53.207A49.457,49.457,0,0,1,5.36,120.2,12.072,12.072,0,0,1,17.1,105.267h83.225A12.072,12.072,0,0,1,112.071,120.2a49.457,49.457,0,0,1-47.847,37.52ZM17.1,111.625a5.714,5.714,0,0,0-4.525,2.206,5.625,5.625,0,0,0-1.046,4.844,42.871,42.871,0,0,0,41.675,32.686H64.223A42.871,42.871,0,0,0,105.9,118.674a5.623,5.623,0,0,0-1.046-4.844,5.713,5.713,0,0,0-4.525-2.206Z" transform="translate(-3.934 -68.605)" fill="#182966"/>
    <path id="Path_972" data-name="Path 972" d="M131.257,299.547h-3.692a4.307,4.307,0,0,1-4.307-4.307V282.32a4.307,4.307,0,0,1,4.307-4.307h3.692a4.307,4.307,0,0,1,4.307,4.307V295.24A4.307,4.307,0,0,1,131.257,299.547Z" transform="translate(-96.883 -204.386)" fill="#ffc226"/>
    <path id="Path_973" data-name="Path 973" d="M119.581,291.049H115.89a7.494,7.494,0,0,1-7.486-7.486V270.643a7.494,7.494,0,0,1,7.486-7.486h3.692a7.494,7.494,0,0,1,7.486,7.486v12.921A7.494,7.494,0,0,1,119.581,291.049Zm-3.692-21.534a1.129,1.129,0,0,0-1.128,1.128v12.921a1.129,1.129,0,0,0,1.128,1.128h3.692a1.129,1.129,0,0,0,1.128-1.128V270.643a1.129,1.129,0,0,0-1.128-1.128Z" transform="translate(-85.207 -192.709)" fill="#182966"/>
    <path id="Path_974" data-name="Path 974" d="M339.233,299.547h-3.692a4.307,4.307,0,0,1-4.307-4.307V282.32a4.307,4.307,0,0,1,4.307-4.307h3.692a4.307,4.307,0,0,1,4.307,4.307V295.24A4.307,4.307,0,0,1,339.233,299.547Z" transform="translate(-260.355 -204.386)" fill="#ffc226"/>
    <path id="Path_975" data-name="Path 975" d="M327.557,291.049h-3.692a7.494,7.494,0,0,1-7.486-7.486V270.643a7.494,7.494,0,0,1,7.486-7.486h3.692a7.494,7.494,0,0,1,7.486,7.486v12.921A7.494,7.494,0,0,1,327.557,291.049Zm-3.692-21.534a1.129,1.129,0,0,0-1.128,1.128v12.921a1.129,1.129,0,0,0,1.128,1.128h3.692a1.129,1.129,0,0,0,1.128-1.128V270.643a1.129,1.129,0,0,0-1.128-1.128Z" transform="translate(-248.678 -192.709)" fill="#182966"/>
  </g>
</svg>
