<svg xmlns="http://www.w3.org/2000/svg" width="84.297" height="89.828" viewBox="0 0 84.297 89.828">
  <g id="coins" transform="translate(0 43)">
    <g id="Group_386" data-name="Group 386" transform="translate(2 -2.413)">
      <path id="Path_906" data-name="Path 906" d="M2,10v6.749c0,2.8,4.533,5.062,10.123,5.062s10.123-2.266,10.123-5.062V10" transform="translate(-2 -4.938)" fill="none" stroke="#ffb50c" stroke-miterlimit="10" stroke-width="4"/>
      <path id="Path_907" data-name="Path 907" d="M2,18v6.749c0,2.8,4.533,5.062,10.123,5.062s10.123-2.266,10.123-5.062V18" transform="translate(-2 -6.19)" fill="none" stroke="#ffb50c" stroke-miterlimit="10" stroke-width="4"/>
      <path id="Path_908" data-name="Path 908" d="M2,26v6.749c0,2.8,4.533,5.062,10.123,5.062" transform="translate(-2 -7.441)" fill="none" stroke="#ffb50c" stroke-miterlimit="10" stroke-width="4"/>
      <path id="Path_909" data-name="Path 909" d="M2,34v6.749c0,2.8,4.533,5.062,10.123,5.062" transform="translate(-2 -8.692)" fill="none" stroke="#ffb50c" stroke-miterlimit="10" stroke-width="4"/>
      <ellipse id="Ellipse_20" data-name="Ellipse 20" cx="10" cy="5" rx="10" ry="5" transform="translate(0 0.241)" fill="none" stroke="#ffb50c" stroke-linecap="square" stroke-miterlimit="10" stroke-width="4"/>
      <path id="Path_913" data-name="Path 913" d="M20,38v6.749c0,2.8,4.533,5.062,10.123,5.062s10.123-2.266,10.123-5.062V38" transform="translate(-4.815 -9.318)" fill="none" stroke="#ffb50c" stroke-miterlimit="10" stroke-width="4"/>
      <path id="Path_914" data-name="Path 914" d="M20,46v6.749c0,2.8,4.533,5.062,10.123,5.062s10.123-2.266,10.123-5.062V46" transform="translate(-4.815 -10.569)" fill="none" stroke="#ffb50c" stroke-miterlimit="10" stroke-width="4"/>
      <ellipse id="Ellipse_22" data-name="Ellipse 22" cx="10" cy="5.5" rx="10" ry="5.5" transform="translate(15 23.241)" fill="none" stroke="#ffb50c" stroke-linecap="square" stroke-miterlimit="10" stroke-width="4"/>
    </g>
    <g id="user" transform="translate(35.056 -41)">
      <g id="Group_387" data-name="Group 387" transform="translate(0 0)">
        <path id="Path_915" data-name="Path 915" d="M51.241,51.426a6.732,6.732,0,0,0-4.436-6.344A56.561,56.561,0,0,0,27.62,42,56.561,56.561,0,0,0,8.436,45.082,6.731,6.731,0,0,0,4,51.426v7.446H51.241Z" transform="translate(-4 -8.256)" fill="none" stroke="#182966" stroke-linecap="square" stroke-miterlimit="10" stroke-width="4"/>
        <path id="Path_916" data-name="Path 916" d="M29.81,28.995h0A11.81,11.81,0,0,1,18,17.185V13.81A11.81,11.81,0,0,1,29.81,2h0A11.81,11.81,0,0,1,41.62,13.81v3.374A11.81,11.81,0,0,1,29.81,28.995Z" transform="translate(-6.19 -2)" fill="none" stroke="#182966" stroke-linecap="square" stroke-miterlimit="10" stroke-width="4"/>
      </g>
    </g>
  </g>
</svg>
