<svg xmlns="http://www.w3.org/2000/svg" width="103.155" height="103.027" viewBox="0 0 103.155 103.027"><g transform="translate(0.5 0.5)"><path d="M71.808,86.162a4.931,4.931,0,0,1-7.142,0L48.851,70.348a40.776,40.776,0,0,0,6.632-6.632L71.3,79.531C73.338,81.061,73.338,84.122,71.808,86.162Zm-40.3-61.726a8.94,8.94,0,0,0-8.672-8.672V33.108a12.753,12.753,0,1,1,0,25.507v8.672H18.753V58.615A12.63,12.63,0,0,1,6,45.862h4.081a8.94,8.94,0,0,0,8.672,8.672V37.189A12.63,12.63,0,0,1,6,24.436,12.63,12.63,0,0,1,18.753,11.682V2.5h4.081v8.672A12.63,12.63,0,0,1,35.588,23.926H31.507Zm0,21.426a8.94,8.94,0,0,0-8.672-8.672V54.534A8.94,8.94,0,0,0,31.507,45.862ZM18.753,33.108V15.764a8.94,8.94,0,0,0-8.672,8.672A8.6,8.6,0,0,0,18.753,33.108Z" transform="translate(24.608 10.253)" fill="#ffc226"/><path d="M83.152,70.4,99.477,86.723a8.93,8.93,0,0,1,0,12.753,8.447,8.447,0,0,1-6.632,2.551,10.744,10.744,0,0,1-6.632-2.551L69.889,83.152a46.6,46.6,0,0,1-25,7.652C20.405,90.8,0,70.4,0,45.4A45.5,45.5,0,0,1,45.4,0,46.986,46.986,0,0,1,72.949,9.182l-3.061,3.061A40.369,40.369,0,0,0,45.4,4.081,40.811,40.811,0,1,0,86.213,44.892a51.288,51.288,0,0,0-2.041-12.753l3.571-3.571A44.187,44.187,0,0,1,90.8,44.892,46.992,46.992,0,0,1,83.152,70.4Zm0-49.993-3.061,3.061c-1.02-1.53-2.551-3.571-3.571-5.1L79.581,15.3C80.6,17.345,82.132,18.875,83.152,20.405Z" fill="#313678" stroke="#313678" stroke-width="1"/></g></svg>