<svg xmlns="http://www.w3.org/2000/svg" width="98.06" height="96.731" viewBox="0 0 98.06 96.731"><g transform="translate(-22.948)"><g transform="translate(22.948)"><path d="M38.491,96.731H37.159c-4.961,0-8.868-2.027-11.3-5.861-1.933-3.05-2.913-7.222-2.913-12.4V18.261c0-5.178.98-9.35,2.913-12.4C28.291,2.027,32.2,0,37.159,0h1.332a2.984,2.984,0,0,1,2.984,2.984V93.747A2.984,2.984,0,0,1,38.491,96.731ZM35.507,6.056c-2.691.369-6.591,2.284-6.591,12.205V78.469c0,9.921,3.9,11.836,6.591,12.205Z" transform="translate(-22.948)" fill="#221f72"/><path d="M202.536,394h-40.8a2.984,2.984,0,1,1,0-5.967h40.8a5.927,5.927,0,0,0,5.92-5.92V369.5a2.984,2.984,0,1,1,5.968,0v12.614A11.9,11.9,0,0,1,202.536,394Z" transform="translate(-133.098 -297.271)" fill="#182966"/><path d="M155.208,28.209a2.984,2.984,0,0,1-2.984-2.984V11.888a5.927,5.927,0,0,0-5.92-5.92h-53.9a2.984,2.984,0,0,1,0-5.968h53.9a11.9,11.9,0,0,1,11.887,11.888V25.225A2.984,2.984,0,0,1,155.208,28.209Z" transform="translate(-76.866)" fill="#221f72"/></g><path d="M324.133,203.974a4.294,4.294,0,0,0-4.294-4.294H290.275a.876.876,0,0,0-.779,1.278l4.629,8.959a.876.876,0,0,1,0,.8l-4.629,8.96a.876.876,0,0,0,.779,1.278H319.84a4.294,4.294,0,0,0,4.294-4.294Z" transform="translate(-203.183 -161.955)" fill="#ffb50c"/><g transform="translate(51.42 20.02)"><path d="M307.018,211.136H277.454a3.86,3.86,0,0,1-3.429-5.631l4.13-7.993-4.129-7.992a3.86,3.86,0,0,1,3.429-5.632h29.565a7.286,7.286,0,0,1,7.278,7.277v12.693A7.286,7.286,0,0,1,307.018,211.136Zm-26.1-5.968h26.1a1.312,1.312,0,0,0,1.31-1.31V191.165a1.311,1.311,0,0,0-1.31-1.31h-26.1l3.04,5.885a3.867,3.867,0,0,1,0,3.542Z" transform="translate(-244.709 -170.166)" fill="#221f72"/><path d="M207.518,111.933H176.636a2.984,2.984,0,1,1,0-5.968h30.883a2.984,2.984,0,0,1,0,5.968Z" transform="translate(-173.652 -105.965)" fill="#221f72"/><path d="M207.518,380.416H176.636a2.984,2.984,0,1,1,0-5.968h30.883a2.984,2.984,0,0,1,0,5.968Z" transform="translate(-173.652 -323.724)" fill="#221f72"/></g></g></svg>