<svg xmlns="http://www.w3.org/2000/svg" width="275.611" height="197.96" viewBox="0 0 275.611 197.96">
  <g id="credit-card-1" transform="translate(0 -72.126)">
    <path id="Path_871" data-name="Path 871" d="M267.994,270.086H7.618A7.618,7.618,0,0,1,0,262.469V79.744a7.618,7.618,0,0,1,7.618-7.618H267.994a7.618,7.618,0,0,1,0,15.235H15.235v167.49H260.376V117.811a7.618,7.618,0,0,1,15.235,0V262.468A7.618,7.618,0,0,1,267.994,270.086Z" fill="#507c5c"/>
    <circle id="Ellipse_17" data-name="Ellipse 17" cx="24.364" cy="24.364" r="24.364" transform="translate(186.759 110.975)" fill="#cff09e"/>
    <g id="Group_148" data-name="Group 148" transform="translate(32.508 103.357)">
      <path id="Path_872" data-name="Path 872" d="M324.271,130.143a31.9,31.9,0,0,0-23.592,10.414A31.984,31.984,0,1,0,277.053,194.1a7.618,7.618,0,1,0,0-15.235,16.746,16.746,0,1,1,15.433-23.261,7.521,7.521,0,0,0,.343.707,31.977,31.977,0,1,0,31.442-26.172Zm0,48.727a16.746,16.746,0,1,1,16.746-16.746A16.764,16.764,0,0,1,324.271,178.87Z" transform="translate(-145.657 -130.143)" fill="#507c5c"/>
      <path id="Path_873" data-name="Path 873" d="M117.775,217.514H68.007a7.618,7.618,0,1,1,0-15.235h49.769a7.618,7.618,0,1,1,0,15.235Z" transform="translate(-60.389 -163.448)" fill="#507c5c"/>
      <path id="Path_874" data-name="Path 874" d="M117.775,163.759H68.007a7.618,7.618,0,1,1,0-15.235h49.769a7.618,7.618,0,1,1,0,15.235Z" transform="translate(-60.389 -138.629)" fill="#507c5c"/>
    </g>
    <rect id="Rectangle_303" data-name="Rectangle 303" width="45.873" height="36.062" transform="translate(40.934 198.268)" fill="#cff09e"/>
    <path id="Path_875" data-name="Path 875" d="M115.385,343.608H69.508a7.619,7.619,0,0,1-7.618-7.618V299.929a7.618,7.618,0,0,1,7.618-7.618h45.877A7.618,7.618,0,0,1,123,299.929v36.062A7.618,7.618,0,0,1,115.385,343.608ZM77.126,328.373h30.642V307.547H77.126Z" transform="translate(-28.574 -101.659)" fill="#507c5c"/>
    <rect id="Rectangle_304" data-name="Rectangle 304" width="45.873" height="36.062" transform="translate(114.912 198.268)" fill="#cff09e"/>
    <path id="Path_876" data-name="Path 876" d="M252.817,343.608H206.941a7.619,7.619,0,0,1-7.618-7.618V299.929a7.618,7.618,0,0,1,7.618-7.618h45.876a7.618,7.618,0,0,1,7.618,7.618v36.062A7.617,7.617,0,0,1,252.817,343.608Zm-38.258-15.235H245.2V307.547H214.559Z" transform="translate(-92.027 -101.659)" fill="#507c5c"/>
    <rect id="Rectangle_305" data-name="Rectangle 305" width="45.873" height="36.062" transform="translate(188.803 198.268)" fill="#cff09e"/>
    <path id="Path_877" data-name="Path 877" d="M390.075,343.608H344.2a7.618,7.618,0,0,1-7.617-7.618V299.929a7.618,7.618,0,0,1,7.617-7.618h45.877a7.618,7.618,0,0,1,7.618,7.618v36.062A7.617,7.617,0,0,1,390.075,343.608Zm-38.259-15.235h30.642V307.547H351.816Z" transform="translate(-155.398 -101.659)" fill="#507c5c"/>
  </g>
</svg>
