<svg xmlns="http://www.w3.org/2000/svg" width="261.134" height="195.068" viewBox="0 0 261.134 195.068">
  <g id="email-2" transform="translate(0 -64.767)">
    <g id="Group_152" data-name="Group 152" transform="translate(0 64.767)">
      <path id="Path_881" data-name="Path 881" d="M350.809,175.12a55.176,55.176,0,1,1,55.177-55.177A55.24,55.24,0,0,1,350.809,175.12Zm0-95.833a40.656,40.656,0,1,0,40.656,40.656A40.7,40.7,0,0,0,350.809,79.287Z" transform="translate(-144.852 -64.767)" fill="#507c5c"/>
      <path id="Path_882" data-name="Path 882" d="M194.71,289.606H19.314A19.336,19.336,0,0,1,0,270.293V144.842a19.336,19.336,0,0,1,19.314-19.314H161.126a7.26,7.26,0,1,1,0,14.52H19.314a4.8,4.8,0,0,0-4.794,4.794V270.293a4.8,4.8,0,0,0,4.794,4.793h175.4a4.8,4.8,0,0,0,4.793-4.793V228.654a7.26,7.26,0,1,1,14.52,0v41.639A19.337,19.337,0,0,1,194.71,289.606Z" transform="translate(0 -94.538)" fill="#507c5c"/>
    </g>
    <path id="Path_883" data-name="Path 883" d="M167.8,158.55a47.837,47.837,0,0,1,2.4-14.989H30.483a10.54,10.54,0,0,0-6.391,18.922l86.29,65.794a10.541,10.541,0,0,0,12.782,0l54.049-41.211A47.69,47.69,0,0,1,167.8,158.55Z" transform="translate(-9.762 -38.607)" fill="#cff09e"/>
    <g id="Group_153" data-name="Group 153" transform="translate(2.888 94.455)">
      <path id="Path_884" data-name="Path 884" d="M109.786,230.72a17.9,17.9,0,0,1-10.793-3.645l-86.29-65.8A17.8,17.8,0,0,1,23.5,129.323H163.22a7.26,7.26,0,0,1,6.9,9.529,40.648,40.648,0,0,0,5.94,36.911,7.26,7.26,0,0,1-1.429,10.1l-54.049,41.211A17.9,17.9,0,0,1,109.786,230.72ZM23.5,143.844a3.28,3.28,0,0,0-1.989,5.889l86.29,65.794a3.278,3.278,0,0,0,3.977,0l48.718-37.146a55.259,55.259,0,0,1-6.4-34.537Z" transform="translate(-5.662 -126.086)" fill="#507c5c"/>
      <path id="Path_885" data-name="Path 885" d="M387.034,135.754l-2.105,1.307a3.3,3.3,0,0,1-1.815.581c-2.105,0-3.557-2.251-3.557-4.5a4.334,4.334,0,0,1,2.105-3.848l9.584-5.809a3.937,3.937,0,0,1,2.1-.508c2.323,0,5.01,1.38,5.01,3.557V172.71c0,2.324-2.831,3.486-5.663,3.486s-5.663-1.162-5.663-3.486V135.754Z" transform="translate(-188.86 -122.976)" fill="#507c5c"/>
    </g>
  </g>
</svg>
