<svg xmlns="http://www.w3.org/2000/svg" width="268.001" height="200.709" viewBox="0 0 268.001 200.709">
  <g id="laptop" transform="translate(0 -64.279)">
    <g id="Group_146" data-name="Group 146" transform="translate(17.372 64.279)">
      <path id="Path_867" data-name="Path 867" d="M266.446,234.1H33.189V87.958A23.706,23.706,0,0,1,56.868,64.279h185.9a23.706,23.706,0,0,1,23.679,23.679V234.1ZM47.638,219.648H252V87.958a9.241,9.241,0,0,0-9.23-9.23H56.868a9.241,9.241,0,0,0-9.23,9.23V219.648Z" transform="translate(-33.189 -64.279)" fill="#507c5c"/>
      <path id="Path_868" data-name="Path 868" d="M263.858,260.4H88.4V135.9a16.438,16.438,0,0,1,16.42-16.42H247.44a16.438,16.438,0,0,1,16.42,16.42H249.411a1.973,1.973,0,0,0-1.971-1.971H104.815a1.973,1.973,0,0,0-1.971,1.971V245.956H249.409v-81h14.449V260.4Z" transform="translate(-59.498 -90.588)" fill="#507c5c"/>
    </g>
    <path id="Path_869" data-name="Path 869" d="M259.451,405.8H21.706a7.9,7.9,0,0,1-7.9-7.9v-15.08a7.9,7.9,0,0,1,7.9-7.9H259.451a7.9,7.9,0,0,1,7.9,7.9v15.08A7.9,7.9,0,0,1,259.451,405.8Z" transform="translate(-6.577 -148.034)" fill="#cff09e"/>
    <path id="Path_870" data-name="Path 870" d="M252.873,406.445H15.128A15.147,15.147,0,0,1,0,391.316V376.237a15.146,15.146,0,0,1,15.128-15.128H252.873A15.146,15.146,0,0,1,268,376.237v15.079A15.146,15.146,0,0,1,252.873,406.445ZM15.128,375.556a.68.68,0,0,0-.68.68v15.079a.68.68,0,0,0,.68.68H252.873a.68.68,0,0,0,.68-.68V376.236a.68.68,0,0,0-.68-.68Z" transform="translate(0 -141.457)" fill="#507c5c"/>
  </g>
</svg>
