<svg xmlns="http://www.w3.org/2000/svg" width="234.852" height="219.805" viewBox="0 0 234.852 219.805">
  <g id="phone-call-2" transform="translate(0 -16.402)">
    <path id="Path_878" data-name="Path 878" d="M165.771,172.523l-11.917,11.916c-1.02-.556-2.121-1.108-3.233-1.733-10.23-5.673-30.426-19.6-45.157-34.332C90.7,133.607,76.719,113.4,71.051,103.174c-.611-1.075-.861-1.778-1.416-2.785L80.813,89.883l1.158-1.158a22.679,22.679,0,0,0,0-32.073L64.506,39.186a22.679,22.679,0,0,0-32.2.128l-4.655,4.729a52.841,52.841,0,0,0-7.486,13.2,54.316,54.316,0,0,0-3.337,13.369c-4.254,35.167,11.814,67.312,55.415,110.931C132.532,241.809,180.8,237.631,182.9,237.4a57.536,57.536,0,0,0,13.7-3.7,52.564,52.564,0,0,0,13.18-7.507l4.731-4.652a22.679,22.679,0,0,0,.135-32.208l-16.8-16.8A22.68,22.68,0,0,0,165.771,172.523Z" transform="translate(-8.752 -8.738)" fill="#cff09e"/>
    <g id="Group_151" data-name="Group 151" transform="translate(0 16.402)">
      <path id="Path_879" data-name="Path 879" d="M170.656,236.207h0c-12.718,0-58.409-4.2-112.4-58.167C12.85,132.614-3.822,98.708.721,61.023A61.444,61.444,0,0,1,4.49,45.877l.029-.075a60.644,60.644,0,0,1,8.548-15.059,7.354,7.354,0,0,1,.555-.633l4.655-4.729a30.084,30.084,0,0,1,42.711-.17L78.455,42.678a30.083,30.083,0,0,1,0,42.544L77.3,86.38c-.054.053-.108.107-.164.159L70.1,93.15c5.772,9.76,18.233,27.629,31.85,41.25,13.809,13.809,32.2,26.522,41.842,32.14l7.994-7.993a30.084,30.084,0,0,1,42.543,0l16.8,16.8a30.084,30.084,0,0,1-.181,42.723l-4.731,4.651a7.291,7.291,0,0,1-.617.543,60.114,60.114,0,0,1-15.059,8.582,64.15,64.15,0,0,1-15.524,4.162A39.633,39.633,0,0,1,170.656,236.207ZM18.323,51.164a46.813,46.813,0,0,0-2.886,11.518c0,.026-.006.052-.009.078-3.946,32.622,11.5,62.987,53.3,104.809C118.69,217.514,159.375,221.4,170.654,221.4h0c1.748,0,2.667-.1,2.676-.1a49.78,49.78,0,0,0,11.842-3.252,45.066,45.066,0,0,0,10.966-6.182l4.426-4.352a15.274,15.274,0,0,0,.092-21.692l-16.8-16.8a15.275,15.275,0,0,0-21.6,0l-11.917,11.916a7.4,7.4,0,0,1-8.779,1.266c-.388-.212-.788-.422-1.2-.637-.692-.364-1.4-.74-2.118-1.142-10.1-5.6-30.928-19.713-46.765-35.551s-30.248-37.1-35.636-46.817c-.444-.785-.748-1.421-.993-1.934-.135-.282-.265-.563-.446-.889a7.406,7.406,0,0,1,1.41-8.976L66.907,75.828l1.077-1.077a15.275,15.275,0,0,0,0-21.6L50.518,35.686a15.276,15.276,0,0,0-21.687.085l-4.347,4.416A45.752,45.752,0,0,0,18.323,51.164Z" transform="translate(0 -16.402)" fill="#507c5c"/>
      <path id="Path_880" data-name="Path 880" d="M321.69,164.085a13.039,13.039,0,0,1-13.023-12.969h-35.9A20.24,20.24,0,0,1,252.546,130.9V117.262a20.241,20.241,0,0,1,20.218-20.218h4.791a7.4,7.4,0,0,1,0,14.809h-4.791a5.415,5.415,0,0,0-5.409,5.409V130.9a5.416,5.416,0,0,0,5.409,5.409h43.308a7.4,7.4,0,0,1,7.4,7.4v3.81L355.5,124.081l-32.027-23.442v3.809a7.4,7.4,0,0,1-7.4,7.4H304.1a7.4,7.4,0,1,1,0-14.809h4.567a13.013,13.013,0,0,1,20.7-10.447l36.863,26.982a13.013,13.013,0,0,1,0,21l-36.863,26.981A12.972,12.972,0,0,1,321.69,164.085Z" transform="translate(-136.704 -53.034)" fill="#507c5c"/>
    </g>
  </g>
</svg>
