<svg xmlns="http://www.w3.org/2000/svg" width="76" height="76.701" viewBox="0 0 76 76.701">
  <g id="gift" transform="translate(0.149 1)">
    <g id="Group_389" data-name="Group 389" transform="translate(2 2)">
      <line id="Line_53" data-name="Line 53" y1="22" x2="22" transform="translate(6.851 25.851)" fill="none" stroke="#182966" stroke-miterlimit="10" stroke-width="4"/>
      <line id="Line_54" data-name="Line 54" y1="41" x2="41" transform="translate(6.851 25.851)" fill="none" stroke="#182966" stroke-miterlimit="10" stroke-width="4"/>
      <line id="Line_55" data-name="Line 55" y1="43" x2="43" transform="translate(21.851 28.851)" fill="none" stroke="#182966" stroke-miterlimit="10" stroke-width="4"/>
      <line id="Line_56" data-name="Line 56" y1="22" x2="22" transform="translate(42.851 49.851)" fill="none" stroke="#182966" stroke-miterlimit="10" stroke-width="4"/>
      <path id="Path_917" data-name="Path 917" d="M14,9.17A7.042,7.042,0,0,1,21.17,2C31.686,2,35.51,16.34,35.51,16.34H21.17A7.042,7.042,0,0,1,14,9.17Z" transform="translate(0.34 -3)" fill="none" stroke="#ffb50c" stroke-linecap="square" stroke-miterlimit="10" stroke-width="4"/>
      <path id="Path_918" data-name="Path 918" d="M53.51,9.17A7.042,7.042,0,0,0,46.34,2C35.824,2,32,16.34,32,16.34H46.34A7.042,7.042,0,0,0,53.51,9.17Z" transform="translate(3.851 -3)" fill="none" stroke="#ffb50c" stroke-linecap="square" stroke-miterlimit="10" stroke-width="4"/>
      <path id="Path_919" data-name="Path 919" d="M65.361,24V69.411H8V24" transform="translate(-0.83 2.29)" fill="none" stroke="#182966" stroke-linecap="square" stroke-miterlimit="10" stroke-width="4"/>
      <rect id="Rectangle_322" data-name="Rectangle 322" width="72" height="12" transform="translate(-0.149 13.851)" fill="none" stroke="#182966" stroke-linecap="square" stroke-miterlimit="10" stroke-width="4"/>
    </g>
  </g>
</svg>
