<svg xmlns="http://www.w3.org/2000/svg" width="134.304" height="87.857" viewBox="0 0 134.304 87.857">
  <g id="menu-accounts" transform="translate(0 -4.3)">
    <g id="Group_85" data-name="Group 85" transform="translate(0 4.3)">
      <path id="Path_669" data-name="Path 669" d="M123.672,9.9a5.015,5.015,0,0,1,5.036,5.036V81.525a5.015,5.015,0,0,1-5.036,5.036H10.632A5.015,5.015,0,0,1,5.6,81.525V14.932A5.015,5.015,0,0,1,10.632,9.9H123.672m0-5.6H10.632A10.625,10.625,0,0,0,0,14.932V81.525A10.625,10.625,0,0,0,10.632,92.157H123.672A10.625,10.625,0,0,0,134.3,81.525V14.932A10.625,10.625,0,0,0,123.672,4.3Z" transform="translate(0 -4.3)" fill="#00722b"/>
    </g>
    <g id="Group_86" data-name="Group 86" transform="translate(11.192 13.813)">
      <path id="Path_670" data-name="Path 670" d="M7.6,6A5.287,5.287,0,0,0,2,11.6a5.287,5.287,0,0,0,5.6,5.6,5.287,5.287,0,0,0,5.6-5.6A5.287,5.287,0,0,0,7.6,6Z" transform="translate(-2 -6)" fill="#00722b"/>
    </g>
    <g id="Group_87" data-name="Group 87" transform="translate(27.98 13.813)">
      <path id="Path_671" data-name="Path 671" d="M10.6,6A5.287,5.287,0,0,0,5,11.6a5.287,5.287,0,0,0,5.6,5.6,5.287,5.287,0,0,0,5.6-5.6A5.287,5.287,0,0,0,10.6,6Z" transform="translate(-5 -6)" fill="#00722b"/>
    </g>
    <g id="Group_88" data-name="Group 88" transform="translate(44.899 13.813)">
      <path id="Path_672" data-name="Path 672" d="M13.489,6a3.364,3.364,0,0,0-2.238.56,5.553,5.553,0,0,0-2.8,7.275,5.378,5.378,0,0,0,5.036,3.358,3.364,3.364,0,0,0,2.238-.56,5.553,5.553,0,0,0,2.8-7.275A5.378,5.378,0,0,0,13.489,6Z" transform="translate(-8.023 -6)" fill="#00722b"/>
    </g>
    <g id="Group_89" data-name="Group 89" transform="translate(5.596 30.601)">
      <path id="Path_673" data-name="Path 673" d="M124.112,9H1v5.6H124.112Z" transform="translate(-1 -9)" fill="#00722b"/>
    </g>
    <g id="Group_90" data-name="Group 90" transform="translate(89.536 47.389)">
      <path id="Path_674" data-name="Path 674" d="M43.98,12H16v5.6H43.98Z" transform="translate(-16 -12)" fill="#ffc125"/>
    </g>
    <g id="Group_91" data-name="Group 91" transform="translate(89.536 58.581)">
      <path id="Path_675" data-name="Path 675" d="M43.98,14H16v5.6H43.98Z" transform="translate(-16 -14)" fill="#ffc125"/>
    </g>
    <g id="Group_92" data-name="Group 92" transform="translate(89.536 69.773)">
      <path id="Path_676" data-name="Path 676" d="M32.788,16H16v5.6H32.788Z" transform="translate(-16 -16)" fill="#ffc125"/>
    </g>
    <path id="Path_677" data-name="Path 677" d="M35.278,11.5H4.5V45.076H38.076V25.49" transform="translate(20.682 33.091)" fill="none" stroke="#ffc125" stroke-miterlimit="10" stroke-width="5"/>
    <path id="Path_678" data-name="Path 678" d="M5.5,28.288,11.1,39.48,39.076,11.5" transform="translate(25.278 33.091)" fill="none" stroke="#ffc125" stroke-miterlimit="10" stroke-width="5"/>
  </g>
</svg>
