<svg id="Group-6" xmlns="http://www.w3.org/2000/svg" width="122.033" height="105.733" viewBox="0 0 122.033 105.733">
  <g id="Icon">
    <path id="Fill-5" d="M96.713,17.387c3.26,0,5.433,2.717,5.433,5.977V80.956c0,3.26-2.717,5.977-5.433,5.977H5.433C2.173,86.933,0,84.216,0,80.956V22.82c0-3.26,2.717-5.977,5.433-5.977h91.28ZM8.15,77.7H94V25.537H8.15ZM104.863,0H114.1c3.26,0,5.433,2.717,5.433,5.977V63.57c0,3.26-2.717,5.977-5.433,5.977h-5.433V63.57h3.26V8.15h-6.52V0ZM79.87,8.15V0H96.713V8.15Zm-54.876,0v3.26h-8.15V5.977C16.843,2.717,19.56,0,22.277,0H73.35V8.15ZM51.073,69A17.051,17.051,0,0,1,34.23,51.616a16.852,16.852,0,1,1,33.686,0C67.916,61.4,60.853,69,51.073,69Zm0-28.8a11.142,11.142,0,0,0-11.41,11.41,11.142,11.142,0,0,0,11.41,11.41,11.142,11.142,0,0,0,11.41-11.41A11.142,11.142,0,0,0,51.073,40.206Zm28.8,17.387c-3.26,0-5.433-2.717-5.433-5.977s2.717-5.977,5.433-5.977S85.3,48.356,85.3,51.616,82.586,57.593,79.87,57.593Zm-57.05,0c-3.26,0-5.433-2.717-5.433-5.977S20.1,45.64,22.82,45.64s5.433,2.717,5.433,5.977S26.08,57.593,22.82,57.593Z" fill="#00722b"/>
  </g>
  <ellipse id="Oval" cx="13.479" cy="13.834" rx="13.479" ry="13.834" transform="translate(92.574 64.923)" fill="#fff" stroke="#ffc226" stroke-width="5"/>
  <circle id="Oval-Copy" cx="10.996" cy="10.996" r="10.996" transform="translate(81.223 81.24)" fill="#fff" stroke="#ffc226" stroke-width="5"/>
</svg>
