<svg xmlns="http://www.w3.org/2000/svg" width="132.932" height="81.702" viewBox="0 0 132.932 81.702">
  <g id="Group_78" data-name="Group 78" transform="translate(-53.142 -5.763)">
    <path id="check-svgrepo-com" d="M130.6,125.372H2.327A2.327,2.327,0,0,1,0,123.045V70.814a2.327,2.327,0,0,1,2.327-2.327H130.6a2.327,2.327,0,0,1,2.327,2.327v52.23A2.327,2.327,0,0,1,130.6,125.372ZM4.654,120.718H128.278V73.141H4.654Zm101.6-5.51a17.518,17.518,0,0,1-10.34-4.016q-.631-.5-1.214-1.029c-2.938,2.325-5.761,3.9-7.77,4.3-4.963.991-7.8-3.239-9.5-5.767a17.952,17.952,0,0,0-1.333-1.83,8.743,8.743,0,0,0-2.457,2.968,2.327,2.327,0,0,1-4.1-2.194c.553-1.036,3.515-6.17,7.5-5.422,1.892.355,3.044,2.07,4.263,3.886,1.94,2.891,3.08,4.123,4.723,3.8a16.181,16.181,0,0,0,5.638-3.218,20.2,20.2,0,0,1-2.737-16.7c2.541-9.965,7.973-12.651,12.208-11.849,4.776.909,7.822,5.972,7.085,11.777-.77,6.067-5.161,12.414-10,17.149.2.177.4.335.574.474,3.541,2.784,7.51,3.564,9.156,2.692,2.13-1.13,2.889-3.022,3.85-5.417,1.112-2.773,2.372-5.914,6.094-7.725a2.327,2.327,0,0,1,2.036,4.185c-2.005.976-2.755,2.639-3.811,5.272-1.048,2.614-2.353,5.867-5.987,7.8A8.231,8.231,0,0,1,106.25,115.208Zm-6.5-32.55c-2.024,0-4.713,2.171-6.32,8.474a15.242,15.242,0,0,0,1.747,12.422c4.025-4,7.794-9.309,8.419-14.23.464-3.657-1.332-6.238-3.338-6.619A2.694,2.694,0,0,0,99.746,82.658ZM50.274,112.836H15.948a2.327,2.327,0,0,1,0-4.654H50.274a2.327,2.327,0,1,1,0,4.654Zm0-13.58H15.948a2.327,2.327,0,0,1,0-4.654H50.274a2.327,2.327,0,0,1,0,4.654Zm0-13.58H15.948a2.327,2.327,0,0,1,0-4.654H50.274a2.327,2.327,0,0,1,0,4.654Z" transform="translate(53.142 -37.907)" fill="#00722b"/>
    <path id="check-svgrepo-com-2" data-name="check-svgrepo-com" d="M42.753,61.546h-.078a2.333,2.333,0,0,1-.566-.089L21.947,56.142a2.327,2.327,0,0,1,0-4.5L42.11,46.327a2.267,2.267,0,0,1,.54-.088h64.088a7.61,7.61,0,0,1,7.6,7.6v.107a7.609,7.609,0,0,1-7.6,7.6H42.753Zm2.327-4.654h61.656a2.95,2.95,0,0,0,2.947-2.947v-.107a2.95,2.95,0,0,0-2.947-2.947H45.08Zm-13.41-3L40.426,56.2V51.584Z" transform="translate(51 -40.476)" fill="#ffb50c"/>
  </g>
</svg>
