<svg xmlns="http://www.w3.org/2000/svg" width="88.268" height="87.51" viewBox="0 0 88.268 87.51"><path d="M287.5,106.2a2.561,2.561,0,0,1-2.561-2.561V86.171a12.379,12.379,0,0,1,3.576-8.733l11.9-12.095a8.584,8.584,0,0,1,12.155-.015l.014.014a8.585,8.585,0,0,1,.006,12.146l-12.2,12.2c-.019,1.428-.04,4.6-.058,10.186l5.289.031,10.779-8.278a5.916,5.916,0,0,0,2.3-4.665V38.048a3.467,3.467,0,0,0-3.463-3.463h-.027a3.467,3.467,0,0,0-3.463,3.463V56.933a2.561,2.561,0,0,1-5.121,0V38.048a8.594,8.594,0,0,1,8.585-8.585h.027a8.594,8.594,0,0,1,8.584,8.585V86.961a11.07,11.07,0,0,1-4.3,8.727L308.052,104.5a2.535,2.535,0,0,1-1.574.53l-8.721-.05a2.561,2.561,0,0,1-2.546-2.567c.008-3.256.021-6.7.037-9.343.008-1.325.017-2.447.027-3.24.021-1.713.028-2.29.781-3.043l12.919-12.919a3.463,3.463,0,0,0,0-4.9l-.014-.014a3.463,3.463,0,0,0-4.9-.006L292.171,81.03a7.288,7.288,0,0,0-2.106,5.141v17.465A2.56,2.56,0,0,1,287.5,106.2Z" transform="translate(-235.561 -29.463)" fill="#fff"/><rect width="20.486" height="13.912" transform="translate(51.988 71.036)" fill="#ffb50c"/><g transform="translate(0 0)"><path d="M308.231,426.081H287.745a2.561,2.561,0,0,1-2.561-2.561V409.608a2.561,2.561,0,0,1,2.561-2.561h20.486a2.561,2.561,0,0,1,2.561,2.561V423.52A2.561,2.561,0,0,1,308.231,426.081Zm-17.925-5.121H305.67v-8.791H290.305Z" transform="translate(-235.757 -338.571)" fill="#fff"/><path d="M48.962,106.2a2.561,2.561,0,0,1-2.561-2.561V86.171A7.287,7.287,0,0,0,44.3,81.03l-11.9-12.095a3.463,3.463,0,0,0-4.883.015l-.026.025a3.463,3.463,0,0,0,.006,4.892L40.411,86.786c.753.753.76,1.33.781,3.043.01.794.018,1.915.027,3.24.016,2.639.028,6.087.037,9.343a2.561,2.561,0,0,1-2.546,2.567l-8.721.05h-.015a2.562,2.562,0,0,1-1.56-.53L16.94,95.688a11.069,11.069,0,0,1-4.3-8.727V38.048a8.594,8.594,0,0,1,8.584-8.585h.027a8.594,8.594,0,0,1,8.585,8.585V56.933a2.561,2.561,0,1,1-5.121,0V38.048a3.467,3.467,0,0,0-3.463-3.463h-.027a3.467,3.467,0,0,0-3.463,3.463V86.961a5.917,5.917,0,0,0,2.3,4.665L30.838,99.9l5.289-.031c-.018-5.584-.039-8.758-.058-10.186l-12.2-12.2a8.585,8.585,0,0,1,0-12.14l.026-.025a8.584,8.584,0,0,1,12.134.006L47.947,77.438a12.379,12.379,0,0,1,3.576,8.733v17.465A2.561,2.561,0,0,1,48.962,106.2Z" transform="translate(-12.638 -29.463)" fill="#fff"/></g><rect width="20.486" height="13.912" transform="translate(15.794 71.036)" fill="#ffb50c"/><path d="M108.659,426.081H88.173a2.561,2.561,0,0,1-2.561-2.561V409.608a2.561,2.561,0,0,1,2.561-2.561h20.486a2.561,2.561,0,0,1,2.561,2.561V423.52A2.561,2.561,0,0,1,108.659,426.081Zm-17.925-5.121H106.1v-8.791H90.733Z" transform="translate(-72.378 -338.571)" fill="#fff"/><g transform="translate(26.579)"><circle cx="15.599" cy="15.599" r="15.599" transform="translate(1.956 1.963)" fill="#ffb50c"/><path d="M147.31,35.125A17.562,17.562,0,0,1,134.891,5.144a17.563,17.563,0,1,1,24.837,24.837A17.448,17.448,0,0,1,147.31,35.125Zm0-31.2A13.636,13.636,0,0,0,137.668,27.2,13.636,13.636,0,1,0,156.951,7.921,13.546,13.546,0,0,0,147.31,3.927Z" transform="translate(-129.755)" fill="#fff"/><path d="M211.484,149.794c-.057,0-.114,0-.172-.008a1.964,1.964,0,0,1-1.786-2.126l.46-5.3a8.126,8.126,0,0,1,2.813-5.488l1.091-.938a8.138,8.138,0,0,1,8.4-1.373l1.683.684.041.018,6.658,2.887a1.963,1.963,0,1,1-1.562,3.6l-6.637-2.878-1.662-.676a4.225,4.225,0,0,0-4.365.713l-1.091.938a4.219,4.219,0,0,0-1.461,2.85l-.46,5.3A1.964,1.964,0,0,1,211.484,149.794Z" transform="translate(-198.427 -115.329)" fill="#fff"/><path d="M134.171,29.607a1.964,1.964,0,0,1-.66-3.813l9.047-3.228a.326.326,0,0,0,.194-.425l-1.267-3.267a4.28,4.28,0,0,1,.327-3.74l3.816-6.3a1.963,1.963,0,1,1,3.359,2.033l-3.816,6.3a.328.328,0,0,0-.025.286l1.267,3.267a4.253,4.253,0,0,1-2.536,5.542l-9.047,3.228A1.953,1.953,0,0,1,134.171,29.607Z" transform="translate(-131.866 -6.789)" fill="#fff"/><path d="M254.077,50.13a1.966,1.966,0,0,1-1.943-2.263l.366-2.37a6.3,6.3,0,0,1,3.927-4.9l7.209-2.811a1.963,1.963,0,0,1,1.426,3.659l-7.209,2.811a2.363,2.363,0,0,0-1.473,1.836l-.366,2.37A1.964,1.964,0,0,1,254.077,50.13Z" transform="translate(-235.097 -32.42)" fill="#fff"/></g></svg>