<svg xmlns="http://www.w3.org/2000/svg" width="94.437" height="88.264" viewBox="0 0 94.437 88.264"><g transform="translate(0 -16.735)"><path d="M105.912,213.007H47.783A11.466,11.466,0,0,1,36.33,201.554V160.787a2.616,2.616,0,1,1,5.232,0v40.767a6.228,6.228,0,0,0,6.221,6.221h58.129a6.228,6.228,0,0,0,6.221-6.221V176.118a2.616,2.616,0,1,1,5.232,0v25.435A11.466,11.466,0,0,1,105.912,213.007Z" transform="translate(-29.629 -108.008)" fill="#fff"/><path d="M171.212,314.048c4.57,0,6.619,2.561,7.426,4.066a.272.272,0,0,0,.477,0c.8-1.5,2.843-4.065,7.412-4.065,5.2,0,9.783,3.553,9.783,10.041a13.623,13.623,0,0,1-2.02,7.385c-3.026,5.115-13,11.747-15.043,13.053a.687.687,0,0,1-.74,0c-2.05-1.3-12.021-7.9-15.07-13.054a13.618,13.618,0,0,1-2.016-7.385C161.421,317.6,166.007,314.048,171.212,314.048Z" transform="translate(-131.647 -242.474)" fill="#ffb50c"/><path d="M167.309,335.684a3.3,3.3,0,0,1-1.773-.516c-2.051-1.3-12.467-8.1-15.919-13.93a16.236,16.236,0,0,1-2.381-8.717c0-8.31,6.242-12.657,12.407-12.657a10.911,10.911,0,0,1,7.663,2.789,10.884,10.884,0,0,1,7.653-2.789c6.162,0,12.4,4.348,12.4,12.657a16.239,16.239,0,0,1-2.385,8.717c-3.5,5.914-14.63,13.124-15.887,13.926A3.3,3.3,0,0,1,167.309,335.684ZM159.644,305.1c-3.31,0-7.175,1.945-7.175,7.425a10.988,10.988,0,0,0,1.652,6.053c2.169,3.666,9.063,8.784,13.185,11.506,4.121-2.736,11.013-7.868,13.165-11.506a10.988,10.988,0,0,0,1.656-6.053c0-5.481-3.861-7.425-7.167-7.425-3.035,0-4.451,1.458-5.1,2.682a2.888,2.888,0,0,1-5.09,0C164.108,306.557,162.686,305.1,159.644,305.1Z" transform="translate(-120.079 -230.906)" fill="#fff"/><g transform="translate(0 16.735)"><path d="M76.29,57.6a18.252,18.252,0,0,1-14.536-7.3,18.128,18.128,0,0,1-29.071,0A18.141,18.141,0,0,1,0,39.451c0-1.808.661-5.18,6.378-13.566,2.988-4.382,5.927-8.026,6.05-8.179a2.615,2.615,0,0,1,2.034-.971H79.974a2.615,2.615,0,0,1,2.034.971c.124.153,3.063,3.8,6.051,8.179,5.717,8.385,6.378,11.758,6.378,13.566A18.168,18.168,0,0,1,76.29,57.6ZM61.754,42.312A2.616,2.616,0,0,1,64.2,44.005a12.916,12.916,0,0,0,25-4.554c0-2.656-5.3-10.912-10.49-17.483H15.722C10.537,28.539,5.232,36.8,5.232,39.451a12.917,12.917,0,0,0,25,4.554,2.616,2.616,0,0,1,4.9,0,12.917,12.917,0,0,0,24.175,0A2.617,2.617,0,0,1,61.754,42.312Z" transform="translate(0 -16.735)" fill="#fff"/><path d="M87.739,95.213H19.553a2.616,2.616,0,0,1,0-5.232H87.739a2.616,2.616,0,0,1,0,5.232Z" transform="translate(-13.813 -76.471)" fill="#fff"/></g></g></svg>