<svg xmlns="http://www.w3.org/2000/svg" width="68" height="60" viewBox="0 0 68 60">
  <g id="Group_404" data-name="Group 404" transform="translate(-24.666 -257)">
    <rect id="Rectangle_313" data-name="Rectangle 313" width="68" height="60" rx="6" transform="translate(24.666 257)" fill="#ffb50c"/>
    <g id="face-woman" transform="translate(38.49 266.824)">
      <g id="Group_401" data-name="Group 401" transform="translate(2 2)">
        <path id="Path_925" data-name="Path 925" d="M19.176,2A17.175,17.175,0,0,0,2,19.176v12.6s4.58,4.58,17.176,4.58,17.176-4.58,17.176-4.58v-12.6A17.175,17.175,0,0,0,19.176,2Z" transform="translate(-2 -2)" fill="none" stroke="#fff" stroke-linecap="square" stroke-miterlimit="10" stroke-width="2"/>
        <path id="Path_926" data-name="Path 926" d="M28.171,12.3A17.13,17.13,0,0,1,14.58,19a17.212,17.212,0,0,1-3.565-.376A12.6,12.6,0,1,0,28.171,12.3Z" transform="translate(-5.42 -6.401)" fill="none" stroke="#fff" stroke-linecap="square" stroke-miterlimit="10" stroke-width="2"/>
        <ellipse id="Ellipse_25" data-name="Ellipse 25" cx="1.5" cy="2" rx="1.5" ry="2" transform="translate(10.176 16.176)" fill="#fff"/>
        <ellipse id="Ellipse_26" data-name="Ellipse 26" cx="1.5" cy="2" rx="1.5" ry="2" transform="translate(21.176 16.176)" fill="#fff"/>
      </g>
    </g>
  </g>
</svg>
