<svg id="Group_13" data-name="Group 13" xmlns="http://www.w3.org/2000/svg" width="29.361" height="29.361" viewBox="0 0 29.361 29.361">
  <path id="Path_15" data-name="Path 15" d="M869,98.7c3.92,0,4.385.015,5.933.085a8.117,8.117,0,0,1,2.726.506,4.86,4.86,0,0,1,2.786,2.785,8.125,8.125,0,0,1,.506,2.727c.07,1.548.085,2.012.085,5.932s-.015,4.384-.085,5.932a8.115,8.115,0,0,1-.506,2.726,4.858,4.858,0,0,1-2.786,2.786,8.124,8.124,0,0,1-2.726.505c-1.548.07-2.012.086-5.933.086s-4.384-.016-5.931-.086a8.127,8.127,0,0,1-2.727-.505,4.864,4.864,0,0,1-2.786-2.786,8.144,8.144,0,0,1-.505-2.726c-.07-1.548-.085-2.012-.085-5.932s.015-4.385.085-5.932a8.154,8.154,0,0,1,.505-2.727,4.865,4.865,0,0,1,2.786-2.785,8.121,8.121,0,0,1,2.727-.506c1.548-.07,2.012-.085,5.931-.085m0-2.645c-3.987,0-4.487.017-6.052.088a10.786,10.786,0,0,0-3.563.682,7.505,7.505,0,0,0-4.294,4.294,10.769,10.769,0,0,0-.682,3.563c-.072,1.566-.088,2.066-.088,6.053s.016,4.487.088,6.052a10.765,10.765,0,0,0,.682,3.563,7.51,7.51,0,0,0,4.294,4.294,10.8,10.8,0,0,0,3.563.682c1.566.071,2.066.088,6.052.088s4.487-.017,6.053-.088a10.808,10.808,0,0,0,3.564-.682,7.51,7.51,0,0,0,4.293-4.294,10.76,10.76,0,0,0,.682-3.563c.072-1.566.088-2.066.088-6.052s-.016-4.487-.088-6.053a10.763,10.763,0,0,0-.682-3.563,7.505,7.505,0,0,0-4.293-4.294,10.788,10.788,0,0,0-3.564-.682c-1.566-.071-2.066-.088-6.053-.088" transform="translate(-854.324 -96.056)" fill="#182966"/>
  <path id="Path_16" data-name="Path 16" d="M871.428,105.622a7.539,7.539,0,1,0,7.539,7.539,7.539,7.539,0,0,0-7.539-7.539m0,12.432a4.893,4.893,0,1,1,4.894-4.893,4.893,4.893,0,0,1-4.894,4.893" transform="translate(-856.748 -98.48)" fill="#182966"/>
  <path id="Path_17" data-name="Path 17" d="M885.648,104.625a1.762,1.762,0,1,1-1.762-1.762,1.762,1.762,0,0,1,1.762,1.762" transform="translate(-861.369 -97.781)" fill="#182966"/>
</svg>
