<svg xmlns="http://www.w3.org/2000/svg" width="83.717" height="92.853" viewBox="0 0 83.717 92.853"><g transform="translate(-25.186)"><g transform="translate(36.809 6.056)"><path d="M142.222,403.758H96.91a7.568,7.568,0,0,1,0-15.136h4.411a11.421,11.421,0,0,1,11.111-8.842H126.7a2.559,2.559,0,0,1,0,5.117H112.432a6.291,6.291,0,0,0-6.284,6.283,2.559,2.559,0,0,1-2.559,2.559H96.91a2.451,2.451,0,0,0,0,4.9h45.312a2.451,2.451,0,0,0,0-4.9h-6.68a2.559,2.559,0,1,1,0-5.117h6.68a7.568,7.568,0,1,1,0,15.136Z" transform="translate(-89.331 -316.962)" fill="#fff"/><path d="M244.45,101.073a2.559,2.559,0,0,1-2.559-2.559V35.952a2.559,2.559,0,1,1,5.117,0V98.514A2.559,2.559,0,0,1,244.45,101.073Z" transform="translate(-214.214 -33.393)" fill="#fff"/><path d="M147.191,76.605H91.838a2.559,2.559,0,1,1,0-5.117h55.353a2.559,2.559,0,1,1,0,5.117Z" transform="translate(-89.279 -64.579)" fill="#fff"/></g><path d="M39.3,285.156v.435a11.623,11.623,0,0,0,11.623,11.623h0a11.623,11.623,0,0,0,11.623-11.623v-.435Z" transform="translate(-11.551 -233.442)" fill="#ffb50c"/><g transform="translate(25.186 12.964)"><path d="M39.368,288.221a14.2,14.2,0,0,1-14.182-14.182V273.6a2.559,2.559,0,0,1,2.559-2.559H50.991A2.559,2.559,0,0,1,53.55,273.6v.435A14.2,14.2,0,0,1,39.368,288.221Zm-8.813-12.058a9.066,9.066,0,0,0,17.627,0Z" transform="translate(-25.186 -234.854)" fill="#fff"/><path d="M30.737,103.472a2.56,2.56,0,0,1-2.365-3.535l11.08-26.868a2.559,2.559,0,0,1,2.366-1.583h0a2.559,2.559,0,0,1,2.366,1.583l11.08,26.868a2.559,2.559,0,0,1-4.731,1.951L41.818,80.757,33.1,101.888A2.56,2.56,0,0,1,30.737,103.472Z" transform="translate(-27.636 -71.486)" fill="#fff"/></g><path d="M344.521,285.156v.435a11.623,11.623,0,0,0,11.623,11.623h0a11.623,11.623,0,0,0,11.623-11.623v-.435Z" transform="translate(-261.423 -233.442)" fill="#ffb50c"/><g transform="translate(80.539 12.964)"><path d="M344.592,288.221a14.2,14.2,0,0,1-14.182-14.182V273.6a2.559,2.559,0,0,1,2.559-2.559h23.247a2.559,2.559,0,0,1,2.559,2.559v.435A14.2,14.2,0,0,1,344.592,288.221Zm-8.813-12.058a9.066,9.066,0,0,0,17.627,0Z" transform="translate(-330.41 -234.854)" fill="#fff"/><path d="M358.124,103.472a2.56,2.56,0,0,1-2.367-1.584l-8.714-21.131-8.714,21.131a2.559,2.559,0,0,1-4.731-1.951l11.08-26.868a2.559,2.559,0,0,1,4.731,0l11.08,26.868a2.561,2.561,0,0,1-2.364,3.535Z" transform="translate(-332.861 -71.486)" fill="#fff"/></g><circle cx="6.056" cy="6.056" r="6.056" transform="translate(60.989 2.559)" fill="#ffb50c"/><path d="M217.113,17.229a8.614,8.614,0,1,1,8.615-8.614A8.624,8.624,0,0,1,217.113,17.229Zm0-12.111a3.5,3.5,0,1,0,3.5,3.5A3.5,3.5,0,0,0,217.113,5.117Z" transform="translate(-150.068)" fill="#fff"/></g></svg>