<svg id="Group_12" data-name="Group 12" xmlns="http://www.w3.org/2000/svg" width="26.84" height="26.853" viewBox="0 0 26.84 26.853">
  <rect id="Rectangle_27" data-name="Rectangle 27" width="5.541" height="17.902" transform="translate(0.533 8.951)" fill="#182966"/>
  <path id="Path_12" data-name="Path 12" d="M977.947,104.343a3.3,3.3,0,1,0-3.277-3.3A3.291,3.291,0,0,0,977.947,104.343Z" transform="translate(-974.67 -97.736)" fill="#182966"/>
  <path id="Path_13" data-name="Path 13" d="M992.867,118.045c0-2.517,1.158-4.017,3.376-4.017,2.037,0,3.017,1.439,3.017,4.017v9.4h5.515V116.106c0-4.795-2.718-7.113-6.513-7.113a6.241,6.241,0,0,0-5.395,2.958v-2.411h-5.316v17.9h5.316Z" transform="translate(-977.934 -100.589)" fill="#182966"/>
</svg>
