<svg id="Group_1" data-name="Group 1" xmlns="http://www.w3.org/2000/svg" width="272.406" height="80.16" viewBox="0 0 272.406 80.16">
  <path id="Path_526" data-name="Path 526" d="M535.711,420.826l-.2-.681c-.058-.189-.114-.427-.161-.616h-.01c-.046.189-.1.431-.147.616l-.19.681Zm-.811.541-.23.819h-.751l.981-3.2h.946l.995,3.2h-.779l-.245-.819Z" transform="translate(-441.826 -347.147)" fill="#182966"/>
  <path id="Path_527" data-name="Path 527" d="M550.088,423.869c0-.342-.012-.566-.02-.763h.621l.025.425h.02a.682.682,0,0,1,.626-.481.73.73,0,0,1,.153.01v.685a.74.74,0,0,0-.2-.025.466.466,0,0,0-.494.366,1.2,1.2,0,0,0-.013.162v1.176h-.721Z" transform="translate(-454.696 -350.386)" fill="#182966"/>
  <path id="Path_528" data-name="Path 528" d="M559.425,424.329c-.38,0-.673.086-.673.365a.261.261,0,0,0,.285.277.4.4,0,0,0,.377-.268.7.7,0,0,0,.012-.122Zm.705.533a3.5,3.5,0,0,0,.033.564h-.652l-.042-.233h-.015a.832.832,0,0,1-.663.285.713.713,0,0,1-.753-.712c0-.6.542-.894,1.366-.888v-.032c0-.124-.067-.3-.426-.3a1.309,1.309,0,0,0-.638.176l-.133-.467a1.928,1.928,0,0,1,.9-.2.9.9,0,0,1,1.022,1Z" transform="translate(-461.047 -350.386)" fill="#182966"/>
  <path id="Path_529" data-name="Path 529" d="M571.8,420.527a.466.466,0,0,0,.016.126.434.434,0,0,0,.423.343c.306,0,.5-.238.5-.656,0-.36-.162-.645-.5-.645a.446.446,0,0,0-.423.357.531.531,0,0,0-.016.13Zm-.722-2.386h.722v1.324h.011a.818.818,0,0,1,.7-.327c.556,0,.965.461.96,1.173a1.119,1.119,0,0,1-1.065,1.255.772.772,0,0,1-.7-.374H571.7l-.027.321h-.612c.009-.152.018-.431.018-.694Z" transform="translate(-471.427 -346.473)" fill="#182966"/>
  <path id="Path_530" data-name="Path 530" d="M590.695,421.585a2.638,2.638,0,0,0,.282.008c.324,0,.617-.126.617-.462s-.293-.451-.652-.451h-.247Zm0-1.421h.239c.38,0,.585-.158.585-.4s-.19-.369-.515-.369a2.145,2.145,0,0,0-.309.017Zm-.718-1.226a5.706,5.706,0,0,1,.935-.066,1.753,1.753,0,0,1,.945.182.691.691,0,0,1,.388.626.729.729,0,0,1-.527.684v.006a.808.808,0,0,1,.634.792.849.849,0,0,1-.333.678,2.018,2.018,0,0,1-1.257.289,5.5,5.5,0,0,1-.786-.047Z" transform="translate(-486.502 -347.055)" fill="#182966"/>
  <path id="Path_531" data-name="Path 531" d="M604.708,424.329c-.381,0-.675.086-.675.365a.26.26,0,0,0,.287.277.391.391,0,0,0,.374-.268.535.535,0,0,0,.014-.122Zm.7.533a3.56,3.56,0,0,0,.033.564h-.649l-.043-.233h-.016a.826.826,0,0,1-.663.285.711.711,0,0,1-.749-.712c0-.6.54-.894,1.363-.888v-.032c0-.124-.068-.3-.423-.3a1.321,1.321,0,0,0-.642.176l-.131-.467a1.929,1.929,0,0,1,.9-.2.9.9,0,0,1,1.018,1Z" transform="translate(-497.138 -350.386)" fill="#182966"/>
  <path id="Path_532" data-name="Path 532" d="M616.339,423.851c0-.29-.009-.538-.023-.741h.628l.036.318h.012a.85.85,0,0,1,.717-.371c.476,0,.834.313.834,1v1.375h-.722v-1.285c0-.3-.106-.5-.367-.5a.387.387,0,0,0-.366.27.518.518,0,0,0-.028.183v1.337h-.721Z" transform="translate(-507.494 -350.39)" fill="#182966"/>
  <path id="Path_533" data-name="Path 533" d="M630.857,420.171h.008c.053-.094.109-.189.167-.28l.472-.7h.866l-.83.94.947,1.381H631.6l-.563-.955-.183.229v.726h-.722v-3.372h.722Z" transform="translate(-518.507 -346.474)" fill="#182966"/>
  <path id="Path_534" data-name="Path 534" d="M646.732,421.315v-1.791h-.306v-.53h.306V418.9a1.054,1.054,0,0,1,.3-.779.936.936,0,0,1,.64-.231,1.456,1.456,0,0,1,.386.045l-.031.556a.773.773,0,0,0-.23-.033c-.239,0-.339.185-.339.413v.12h.467v.53h-.462v1.791Z" transform="translate(-531.491 -346.274)" fill="#182966"/>
  <path id="Path_535" data-name="Path 535" d="M655.373,424.264c0,.4.165.7.475.7.277,0,.46-.281.46-.7,0-.347-.131-.7-.46-.7C655.5,423.565,655.373,423.92,655.373,424.264Zm1.681-.025a1.165,1.165,0,0,1-1.224,1.24,1.138,1.138,0,0,1-1.2-1.2,1.159,1.159,0,0,1,1.24-1.229A1.13,1.13,0,0,1,657.055,424.239Z" transform="translate(-538.028 -350.386)" fill="#182966"/>
  <path id="Path_536" data-name="Path 536" d="M668.7,423.869c0-.342-.007-.566-.017-.763h.621l.023.425h.022a.681.681,0,0,1,.626-.481.7.7,0,0,1,.151.01v.685a.714.714,0,0,0-.194-.025.46.46,0,0,0-.491.366.688.688,0,0,0-.016.162v1.176H668.7Z" transform="translate(-549.233 -350.386)" fill="#182966"/>
  <rect id="Rectangle_227" data-name="Rectangle 227" width="0.725" height="3.201" transform="translate(122.264 71.84)" fill="#182966"/>
  <path id="Path_537" data-name="Path 537" d="M689.056,423.851c0-.29-.005-.538-.019-.741h.628l.035.318h.012a.844.844,0,0,1,.718-.371c.474,0,.832.313.832,1v1.375h-.725v-1.285c0-.3-.1-.5-.366-.5a.389.389,0,0,0-.366.27.556.556,0,0,0-.03.183v1.337h-.72Z" transform="translate(-565.451 -350.39)" fill="#182966"/>
  <path id="Path_538" data-name="Path 538" d="M701.966,423.318l.312,1.076a5.579,5.579,0,0,1,.134.567h.012c.04-.188.076-.365.129-.567l.3-1.076h.76l-.864,2.32h-.722l-.845-2.32Z" transform="translate(-575.128 -350.598)" fill="#182966"/>
  <path id="Path_539" data-name="Path 539" d="M715.334,424a.42.42,0,0,0-.411-.471.47.47,0,0,0-.445.471Zm-.85.492c.024.3.319.443.655.443a2.09,2.09,0,0,0,.642-.1l.095.489a2.326,2.326,0,0,1-.84.147,1.117,1.117,0,0,1-1.241-1.187,1.164,1.164,0,0,1,1.174-1.24,1.029,1.029,0,0,1,1.033,1.16,1.368,1.368,0,0,1-.024.284Z" transform="translate(-585.182 -350.386)" fill="#182966"/>
  <path id="Path_540" data-name="Path 540" d="M726.273,424.8a1.422,1.422,0,0,0,.623.174c.217,0,.306-.074.306-.193s-.068-.175-.341-.267c-.48-.16-.664-.423-.66-.693,0-.438.371-.766.945-.766a1.556,1.556,0,0,1,.657.133l-.129.5a1.172,1.172,0,0,0-.5-.133c-.176,0-.274.07-.274.19s.09.165.372.265c.441.154.627.377.632.719,0,.43-.342.754-1,.754a1.664,1.664,0,0,1-.753-.166Z" transform="translate(-595.023 -350.386)" fill="#182966"/>
  <path id="Path_541" data-name="Path 541" d="M736.938,420.2v.634h.517v.529h-.517v.842c0,.282.065.41.284.41a.859.859,0,0,0,.214-.02l.005.548a1.393,1.393,0,0,1-.471.066.753.753,0,0,1-.54-.2.965.965,0,0,1-.2-.689v-.951h-.312v-.529h.312v-.437Z" transform="translate(-602.814 -348.111)" fill="#182966"/>
  <path id="Path_542" data-name="Path 542" d="M745.468,423.851c0-.29-.007-.538-.016-.741h.609l.033.313h.012a.807.807,0,0,1,.7-.366.659.659,0,0,1,.636.393h.011a.964.964,0,0,1,.3-.278.823.823,0,0,1,.443-.115c.447,0,.783.313.783,1.006v1.367h-.7v-1.261c0-.338-.108-.531-.34-.531a.355.355,0,0,0-.333.251.558.558,0,0,0-.027.185v1.357h-.707v-1.3c0-.294-.1-.493-.333-.493a.363.363,0,0,0-.335.259.488.488,0,0,0-.027.181v1.352h-.707Z" transform="translate(-610.411 -350.39)" fill="#182966"/>
  <path id="Path_543" data-name="Path 543" d="M766.556,424a.421.421,0,0,0-.412-.471.472.472,0,0,0-.444.471Zm-.853.492c.024.3.319.443.657.443a2.09,2.09,0,0,0,.64-.1l.094.489a2.317,2.317,0,0,1-.839.147,1.115,1.115,0,0,1-1.24-1.187,1.161,1.161,0,0,1,1.169-1.24,1.031,1.031,0,0,1,1.038,1.16,1.62,1.62,0,0,1-.023.284Z" transform="translate(-626.004 -350.386)" fill="#182966"/>
  <path id="Path_544" data-name="Path 544" d="M777.939,423.851c0-.29-.012-.538-.021-.741h.626l.033.318h.016a.847.847,0,0,1,.719-.371c.47,0,.827.313.827,1v1.375h-.723v-1.285c0-.3-.1-.5-.365-.5a.382.382,0,0,0-.364.27.51.51,0,0,0-.027.183v1.337h-.722Z" transform="translate(-636.287 -350.39)" fill="#182966"/>
  <path id="Path_545" data-name="Path 545" d="M791.583,420.2v.634h.519v.529h-.519v.842c0,.282.068.41.284.41a.845.845,0,0,0,.212-.02l.005.548a1.382,1.382,0,0,1-.471.066.762.762,0,0,1-.541-.2.973.973,0,0,1-.2-.689v-.951h-.306v-.529h.306v-.437Z" transform="translate(-646.368 -348.111)" fill="#182966"/>
  <path id="Path_546" data-name="Path 546" d="M805.5,419.178a.3.3,0,0,0-.287.328.681.681,0,0,0,.223.461c.229-.162.347-.287.347-.47a.292.292,0,0,0-.279-.319Zm-.079,2.332a.658.658,0,0,0,.441-.159c-.2-.2-.463-.491-.722-.787a.531.531,0,0,0-.253.444.5.5,0,0,0,.531.5Zm.985.47c-.066-.07-.132-.143-.209-.229a1.4,1.4,0,0,1-.875.281c-.779,0-1.119-.46-1.119-.906a1.014,1.014,0,0,1,.607-.917v-.021a.97.97,0,0,1-.243-.616.88.88,0,0,1,.961-.846.782.782,0,0,1,.871.75c0,.324-.192.6-.633.824l-.005.018c.186.206.379.438.539.6a2.091,2.091,0,0,0,.269-.779h.646a2.422,2.422,0,0,1-.531,1.215c.179.2.365.413.564.627Z" transform="translate(-657.232 -346.939)" fill="#182966"/>
  <path id="Path_547" data-name="Path 547" d="M825.609,418.987h1.957v.593h-1.232v.73h1.151v.59h-1.151v1.287h-.724Z" transform="translate(-674.296 -347.147)" fill="#182966"/>
  <path id="Path_548" data-name="Path 548" d="M837.293,424.264c0,.4.164.7.474.7.281,0,.463-.281.463-.7,0-.347-.134-.7-.463-.7C837.421,423.565,837.293,423.92,837.293,424.264Zm1.682-.025a1.166,1.166,0,0,1-1.225,1.24,1.14,1.14,0,0,1-1.205-1.2,1.16,1.16,0,0,1,1.242-1.229A1.131,1.131,0,0,1,838.975,424.239Z" transform="translate(-683.011 -350.386)" fill="#182966"/>
  <path id="Path_549" data-name="Path 549" d="M850.638,423.869c0-.342-.009-.566-.019-.763h.62l.025.425h.02a.682.682,0,0,1,.625-.481.737.737,0,0,1,.154.01v.685a.742.742,0,0,0-.2-.025.461.461,0,0,0-.491.366.72.72,0,0,0-.016.162v1.176h-.721Z" transform="translate(-694.228 -350.386)" fill="#182966"/>
  <path id="Path_550" data-name="Path 550" d="M860.3,424a.421.421,0,0,0-.411-.471.473.473,0,0,0-.445.471Zm-.851.492c.023.3.317.443.653.443a2.064,2.064,0,0,0,.641-.1l.1.489a2.312,2.312,0,0,1-.839.147,1.116,1.116,0,0,1-1.241-1.187,1.163,1.163,0,0,1,1.171-1.24,1.032,1.032,0,0,1,1.038,1.16,1.4,1.4,0,0,1-.027.284Z" transform="translate(-700.716 -350.386)" fill="#182966"/>
  <path id="Path_551" data-name="Path 551" d="M871.69,421.671V419.35h.719v2.321Zm.745-2.969a.364.364,0,0,1-.39.361.363.363,0,1,1,.005-.725A.362.362,0,0,1,872.435,418.7Z" transform="translate(-711.004 -346.63)" fill="#182966"/>
  <path id="Path_552" data-name="Path 552" d="M879.125,424.05a.622.622,0,0,0-.013-.134.4.4,0,0,0-.391-.317c-.258,0-.473.236-.473.659,0,.348.169.619.473.619a.4.4,0,0,0,.382-.3.642.642,0,0,0,.023-.19Zm.722,1.04a1.336,1.336,0,0,1-.351,1.045,1.438,1.438,0,0,1-.944.285,1.8,1.8,0,0,1-.837-.182l.142-.545a1.424,1.424,0,0,0,.674.176.556.556,0,0,0,.6-.613v-.15h-.01a.745.745,0,0,1-.628.3,1.023,1.023,0,0,1-.983-1.134,1.113,1.113,0,0,1,1.057-1.222.69.69,0,0,1,.632.328h.015l.024-.274h.625c-.01.147-.019.339-.019.688Z" transform="translate(-715.662 -350.386)" fill="#182966"/>
  <path id="Path_553" data-name="Path 553" d="M891.785,423.851c0-.29-.01-.538-.021-.741h.626l.034.318h.017a.842.842,0,0,1,.717-.371c.473,0,.828.313.828,1v1.375h-.723v-1.285c0-.3-.1-.5-.363-.5a.387.387,0,0,0-.366.27.51.51,0,0,0-.027.183v1.337h-.722Z" transform="translate(-727.019 -350.39)" fill="#182966"/>
  <path id="Path_554" data-name="Path 554" d="M909.166,419.6h-.86v-.606h2.461v.606H909.9v2.592h-.729Z" transform="translate(-740.203 -347.152)" fill="#182966"/>
  <path id="Path_555" data-name="Path 555" d="M920.872,423.869c0-.342-.01-.566-.02-.763h.621l.025.425h.021a.681.681,0,0,1,.626-.481.733.733,0,0,1,.153.01v.685a.741.741,0,0,0-.2-.025.46.46,0,0,0-.492.366.657.657,0,0,0-.016.162v1.176h-.721Z" transform="translate(-750.202 -350.386)" fill="#182966"/>
  <path id="Path_556" data-name="Path 556" d="M930.213,424.329c-.381,0-.675.086-.675.365a.259.259,0,0,0,.284.277.392.392,0,0,0,.375-.268.733.733,0,0,0,.016-.122Zm.7.533a3.285,3.285,0,0,0,.033.564h-.65l-.042-.233h-.018a.836.836,0,0,1-.664.285.713.713,0,0,1-.751-.712c0-.6.541-.894,1.364-.888v-.032c0-.124-.066-.3-.425-.3a1.317,1.317,0,0,0-.638.176l-.134-.467a1.954,1.954,0,0,1,.9-.2.9.9,0,0,1,1.023,1Z" transform="translate(-756.555 -350.386)" fill="#182966"/>
  <path id="Path_557" data-name="Path 557" d="M942.947,420.174c0-.036-.005-.089-.009-.127a.433.433,0,0,0-.424-.357c-.326,0-.5.293-.5.661,0,.394.195.641.492.641a.423.423,0,0,0,.418-.345.727.727,0,0,0,.017-.168Zm.723-2.033v2.679c0,.263.011.537.018.694h-.639l-.032-.343h-.011a.812.812,0,0,1-.726.4,1.065,1.065,0,0,1-.992-1.192,1.1,1.1,0,0,1,1.037-1.236.7.7,0,0,1,.613.263h.009v-1.26Z" transform="translate(-766.489 -346.473)" fill="#182966"/>
  <path id="Path_558" data-name="Path 558" d="M956.763,424a.419.419,0,0,0-.407-.471.475.475,0,0,0-.448.471Zm-.851.492c.024.3.318.443.656.443a2.067,2.067,0,0,0,.641-.1l.1.489a2.334,2.334,0,0,1-.843.147,1.115,1.115,0,0,1-1.237-1.187,1.163,1.163,0,0,1,1.168-1.24,1.033,1.033,0,0,1,1.042,1.16,1.83,1.83,0,0,1-.026.284Z" transform="translate(-777.598 -350.386)" fill="#182966"/>
  <path id="Path_559" data-name="Path 559" d="M161.649,106.8a39.674,39.674,0,1,1-39.673-39.672A39.671,39.671,0,0,1,161.649,106.8Z" transform="translate(-81.897 -66.727)" fill="#182966"/>
  <path id="Path_560" data-name="Path 560" d="M81.569,105.19v.069c.412,21.835,17.087,38.5,38.791,38.777,21.837-.412,38.572-17.088,38.85-38.787-.418-21.842-17.1-38.576-38.79-38.851C98.575,66.808,81.839,83.487,81.569,105.19Zm38.872-40.053c22.384.287,39.6,17.481,40.027,40.138-.287,22.389-17.481,39.6-40.137,40.023-22.388-.285-39.6-17.48-40.02-40v-.141C80.592,82.77,97.791,65.568,120.441,65.137Z" transform="translate(-80.311 -65.137)" fill="#ffb50c"/>
  <path id="Path_561" data-name="Path 561" d="M316.347,156.618a25.233,25.233,0,0,1,2.1,2.651h0a12.947,12.947,0,0,1,1.368,3.41h0a9.824,9.824,0,0,1-3.31.785h0a9.3,9.3,0,0,1-8.933-5.542h0c-.047-.112-.1-.222-.155-.333h0a12.616,12.616,0,0,1-2.285,1.657h0a12.012,12.012,0,0,0,11.514,6.888h0a12.066,12.066,0,0,0,3.516-.719h0a12.935,12.935,0,0,1-3.556,9.218h0a8.371,8.371,0,0,0,1.68,2.267h0a15.672,15.672,0,0,0,4.68-12.018h0a16.421,16.421,0,0,0-2.924-8.36h0a26.757,26.757,0,0,0-3.288-3.57h0a26.254,26.254,0,0,0-5.867-3.979h0c.281.247.558.483.852.719h0A16.878,16.878,0,0,1,316.347,156.618Z" transform="translate(-259.487 -131.952)" fill="#ffb50c"/>
  <path id="Path_562" data-name="Path 562" d="M246.184,139.032a22.735,22.735,0,0,1,3.376.4h0a12.772,12.772,0,0,1,3.349,1.432h0a9.493,9.493,0,0,1-1.779,2.9h0a9.251,9.251,0,0,1-10.237,2.4h0c-.118-.045-.233-.086-.342-.132h0a13.586,13.586,0,0,1-.441,2.791h0a12.04,12.04,0,0,0,13.01-3.273h0a12.054,12.054,0,0,0,1.976-3h0a12.936,12.936,0,0,1,4,9.039h0a8.38,8.38,0,0,0,2.787.42h0a15.681,15.681,0,0,0-5.19-11.81h0a15.817,15.817,0,0,0-7.954-3.817h0a.148.148,0,0,1-.017-.029h0a26.072,26.072,0,0,0-11.8,1.134h0c.368-.028.716-.067,1.094-.1h0A16.622,16.622,0,0,1,246.184,139.032Z" transform="translate(-205.128 -121.71)" fill="#ffb50c"/>
  <path id="Path_563" data-name="Path 563" d="M340.462,221.681c.025.373.068.718.085,1.1h0a16.662,16.662,0,0,1-1.634,8.159h0a27.381,27.381,0,0,1-.4,3.38h0a11.536,11.536,0,0,1-1.439,3.345h0a9.54,9.54,0,0,1-2.894-1.775h0a9.264,9.264,0,0,1-2.4-10.237h0c.043-.12.091-.227.137-.344h0a12.535,12.535,0,0,1-2.795-.441h0a12.03,12.03,0,0,0,3.269,13.007h0a12.233,12.233,0,0,0,3,1.981h0a12.9,12.9,0,0,1-9.034,4h0a8.659,8.659,0,0,0-.421,2.788h0a15.642,15.642,0,0,0,11.806-5.185h0a15.9,15.9,0,0,0,3.928-8.77h0s.01-.014.016-.02h0A26.244,26.244,0,0,0,340.462,221.681Z" transform="translate(-276.069 -189.899)" fill="#ffb50c"/>
  <path id="Path_564" data-name="Path 564" d="M274.038,301.123a23.5,23.5,0,0,1-2.645,2.1h0a12.255,12.255,0,0,1-3.4,1.363h0a9.247,9.247,0,0,1-.8-3.3h0a9.291,9.291,0,0,1,5.542-8.936h0c.109-.055.217-.1.334-.155h0a12.494,12.494,0,0,1-1.659-2.283h0a12.048,12.048,0,0,0-6.883,11.513h0a11.9,11.9,0,0,0,.716,3.519h0a12.967,12.967,0,0,1-9.22-3.557h0a8.536,8.536,0,0,0-2.267,1.68h0a15.71,15.71,0,0,0,12.016,4.676h0a15.746,15.746,0,0,0,8.332-2.932h0a.047.047,0,0,0,.035.012h0a25.713,25.713,0,0,0,3.567-3.29h0a26.136,26.136,0,0,0,3.977-5.869h0c-.242.286-.475.57-.716.852h0A16.508,16.508,0,0,1,274.038,301.123Z" transform="translate(-218.544 -244.276)" fill="#ffb50c"/>
  <path id="Path_565" data-name="Path 565" d="M154.261,196.117a22.941,22.941,0,0,1,.395-3.375h0a13.143,13.143,0,0,1,1.437-3.357h0a9.893,9.893,0,0,1,2.894,1.784h0a9.3,9.3,0,0,1,2.4,10.237h0c-.05.115-.084.232-.127.347h0a12.989,12.989,0,0,1,2.789.438h0a12.057,12.057,0,0,0-3.269-13.011h0a12.942,12.942,0,0,0-3-1.977h0a12.924,12.924,0,0,1,9.037-4.005h0a8.662,8.662,0,0,0,.419-2.785h0a15.662,15.662,0,0,0-11.8,5.184h0a15.87,15.87,0,0,0-3.846,7.977h0a26.032,26.032,0,0,0,1.132,11.8h0c-.028-.37-.067-.718-.095-1.093h0A16.877,16.877,0,0,1,154.261,196.117Z" transform="translate(-136.927 -157.008)" fill="#ffb50c"/>
  <path id="Path_566" data-name="Path 566" d="M211.327,323.682a22.2,22.2,0,0,1-3.38-.4h0a13.5,13.5,0,0,1-3.347-1.432h0a9.211,9.211,0,0,1,1.776-2.9h0a9.264,9.264,0,0,1,10.238-2.4h0c.109.039.223.088.341.127h0a13.685,13.685,0,0,1,.444-2.786h0a12.059,12.059,0,0,0-13.012,3.271h0a12.177,12.177,0,0,0-1.979,3h0a12.886,12.886,0,0,1-4-9.034h0a7.884,7.884,0,0,0-2.79-.423h0a15.712,15.712,0,0,0,5.193,11.811h0a15.64,15.64,0,0,0,7.956,3.812h0a.08.08,0,0,0,.022.034h0a25.963,25.963,0,0,0,11.8-1.136h0c-.37.03-.73.055-1.094.092h0A16.75,16.75,0,0,1,211.327,323.682Z" transform="translate(-172.205 -260.848)" fill="#ffb50c"/>
  <path id="Path_567" data-name="Path 567" d="M171.864,153.907a20.3,20.3,0,0,1,2.65-2.1h0a13.607,13.607,0,0,1,3.412-1.368h0a9.654,9.654,0,0,1,.781,3.305h0a9.294,9.294,0,0,1-5.542,8.939h0c-.11.052-.221.1-.332.149h0a13.458,13.458,0,0,1,1.663,2.289h0a12.09,12.09,0,0,0,6.881-11.512h0a12.01,12.01,0,0,0-.721-3.528h0a13.111,13.111,0,0,1,9.219,3.56h0a7.569,7.569,0,0,0,2.267-1.672h0a15.683,15.683,0,0,0-12.014-4.683h0a15.819,15.819,0,0,0-7.428,2.322h0a.642.642,0,0,1-.148.025h0A26.084,26.084,0,0,0,168.2,153.5h0a26.04,26.04,0,0,0-3.974,5.863h0c.231-.3.473-.567.714-.846h0A16.443,16.443,0,0,1,171.864,153.907Z" transform="translate(-147.185 -130.6)" fill="#ffb50c"/>
  <path id="Path_568" data-name="Path 568" d="M169.148,258.8a24.78,24.78,0,0,1-2.1-2.65h0a13.794,13.794,0,0,1-1.37-3.4h0a9.26,9.26,0,0,1,3.316-.794h0a9.294,9.294,0,0,1,8.932,5.545h0c.053.112.1.216.147.328h0a12.473,12.473,0,0,1,2.288-1.657h0a12.014,12.014,0,0,0-11.512-6.887h0a11.894,11.894,0,0,0-3.52.721h0a12.908,12.908,0,0,1,3.555-9.221h0a7.941,7.941,0,0,0-1.673-2.27h0a15.6,15.6,0,0,0-4.677,12.022h0a15.435,15.435,0,0,0,2.927,8.322h0a.337.337,0,0,0-.007.038h0a25.268,25.268,0,0,0,3.285,3.576h0a25.679,25.679,0,0,0,5.869,3.971h0c-.3-.226-.551-.461-.847-.713h0A16.777,16.777,0,0,1,169.148,258.8Z" transform="translate(-145.834 -203.317)" fill="#ffb50c"/>
  <path id="Path_569" data-name="Path 569" d="M224.413,126.421s0,0-.011.005l.195-.088Z" transform="translate(-195.148 -113.913)" fill="#ffb50c"/>
  <path id="Path_570" data-name="Path 570" d="M400.475,173.045l-.02.007.837,1.449.018-.009c.034-.365.453-.562.762-.742l5.1-2.95c.311-.176.637-.407.972-.253l.019-.011-.838-1.453-.017.012c-.037.373-.394.53-.709.711l-5.109,2.947C401.182,172.934,400.814,173.2,400.475,173.045Z" transform="translate(-335.458 -147.98)" fill="#ffb50c"/>
  <path id="Path_571" data-name="Path 571" d="M243.962,85.482l1.054,5.887c.06.358.167.73-.1,1l.009.017,1.642-.285v-.018c-.332-.156-.363-.558-.424-.9l-1.008-5.808c-.062-.348-.166-.731.1-1v-.017l-1.656.285.005.023C243.915,84.817,243.895,85.125,243.962,85.482Z" transform="translate(-210.431 -80.452)" fill="#ffb50c"/>
  <path id="Path_572" data-name="Path 572" d="M181.049,97.785l1.911,2.729c.423.6.336,1.076-.009,1.319l-.323.228.055.08.536-.378a1.545,1.545,0,0,0,.384-2.316c.719-.5,1.445-.975,2.219-1.422a28.6,28.6,0,0,1,3.545-1.733l0,.03a30.337,30.337,0,0,1,2.885-1l1.474-.377-.009-.021c-.341-.124-.4-.518-.492-.86L191.71,88.4c-.1-.346-.226-.719.014-1l0-.016-1.621.42v.018c.35.13.4.518.493.872l1.516,5.665a.1.1,0,0,1,.015.043c-.615.18-1.227.373-1.836.59-.073.031-.152.056-.232.086s-.168.063-.251.093c-.1.034-.2.072-.3.113v0c-.161.062-.32.126-.479.193l.205-.1a1.521,1.521,0,0,1-1.761-.617c-.574-1.254,1.261-2.151,2.1-1.9l-.447-.532-.947.241c-1.727.648-2.23,1.646-1.841,2.483a2.209,2.209,0,0,0,1.488.945q-1.226.569-2.427,1.255c-.792.454-1.551.948-2.278,1.459l-.015.007-1.115-1.582c-.205-.3-.464-.6-.335-.948l-.011-.018-1.369.962.006.018C180.654,97.145,180.837,97.5,181.049,97.785Z" transform="translate(-159.976 -82.86)" fill="#ffb50c"/>
  <path id="Path_573" data-name="Path 573" d="M222.048,399.256c.125-.335.211-.714.571-.813l0-.019-1.568-.566-.007.017c.206.3.038.664-.087,1l-2,5.537c-.122.343-.222.722-.582.821l-.005.022,1.577.566.009-.018c-.216-.307-.042-.565.083-.9Z" transform="translate(-190.346 -330.307)" fill="#ffb50c"/>
  <path id="Path_574" data-name="Path 574" d="M384.247,365.028l-4.343-4.11c-.267-.246-.576-.483-.523-.851l-.016-.015-1.147,1.208.01.016c.356-.071.621.226.875.47l4.34,4.128c.263.25.57.5.522.861l.01.016,1.161-1.211-.019-.017C384.753,365.6,384.507,365.274,384.247,365.028Z" transform="translate(-317.735 -300.177)" fill="#ffb50c"/>
  <path id="Path_575" data-name="Path 575" d="M387.4,356.312l.01-.006a.044.044,0,0,0-.021,0Z" transform="translate(-325.046 -297.192)" fill="#ffb50c"/>
  <path id="Path_576" data-name="Path 576" d="M127.427,275.464a2.2,2.2,0,0,1-.619.869,1.07,1.07,0,0,1-1.555-.007c-.511-.621.022-1.4.512-1.8a1.254,1.254,0,0,1,.737-.328.967.967,0,0,1,.794.358A.923.923,0,0,1,127.427,275.464Zm3.707,3,.009-.019-.6-.522a28.9,28.9,0,0,1-2.073-2.034,2.06,2.06,0,0,0-.524-1.758,2.4,2.4,0,0,0-1.616-.9l-.026.005a29.041,29.041,0,0,1-5.392-14.359l.018-.036a1.7,1.7,0,0,0-.7-1.36,1.67,1.67,0,0,0-1.191-2.949l-1.165.087c-.351.026-.757.08-.978-.2l-.029,0,.125,1.672h.02c.19-.32.587-.3.944-.327l1.048-.088a.784.784,0,0,1,.11,1.564h0l-1.046.078c-.344.027-.758.081-.982-.2h-.021l.119,1.672h.023c.191-.32.585-.3.946-.331l1.046-.081a.781.781,0,0,1,.154,1.555l-1.087.08c-.353.027-.757.077-.987-.195l-.018,0,.121,1.668h.019c.193-.32.586-.306.947-.33l1.264-.138a.785.785,0,0,1,.833.726v.043c.114.621.256,1.234.414,1.854l-1.832.482c-.361.1-.75.243-1.044.007l-.026,0,.437,1.627.024,0c.119-.322.559-.427.9-.521l1.842-.49a29.98,29.98,0,0,0,2.077,5.146l-1.68.861c-.332.172-.685.391-1.023.223l-.018.009.769,1.5.019-.007c.055-.346.46-.543.78-.7l1.7-.867,0,.005c.045.081.094.161.145.243.439.77.911,1.508,1.407,2.22a2.311,2.311,0,0,0-.511.324,2.035,2.035,0,0,0-.222,3.066,2.145,2.145,0,0,0,3.1.43c.165-.133.292-.255.431-.373.446.461.9.911,1.376,1.346-.007.018-.023.029-.027.046l-3.848,4.387c-.234.268-.5.63-.867.592l-.017.019,1.265,1.1.02-.017c-.1-.36.235-.674.466-.942l3.781-4.352C130.537,278.745,130.771,278.419,131.134,278.461Z" transform="translate(-109.448 -215.985)" fill="#ffb50c"/>
  <path id="Path_577" data-name="Path 577" d="M258.426,398.154l-2.511-5.188c-.148-.321-.354-.667-.178-.979l-.005-.023-.9.435a28.644,28.644,0,0,1-7.458,2.142,1.927,1.927,0,0,0-1.983-.547l-.177.028c.342-.05.688.037.954.673a28.9,28.9,0,0,1-8.853-.455l-.1-.031.012-.029-1.481-.33v.022c.241.264.12.648.044.991l-1.241,5.736c-.075.351-.124.739-.472.883l0,.02,1.639.368.007-.019c-.25-.278-.123-.652-.047-1l1.24-5.737a.281.281,0,0,0,.008-.047l0-.015a29.794,29.794,0,0,0,4.3.6l-.021.015-.055,1.908c-.011.377.013.79-.3,1l0,.023,1.69.048v-.017c-.28-.214-.256-.669-.243-1.025l.051-1.9a30.111,30.111,0,0,0,4.059-.162c.037.2.089.551.094.575l.005,0c.183,1.331,1.489,2.108,3.8,1.788l1.128-.155.108-.977c-.726.88-3.512,1.237-3.764-1.015-.009-.037-.044-.25-.072-.378a29.612,29.612,0,0,0,7.126-2.021l.031.048c.005.019.019.034.024.051l2.505,5.189c.159.326.362.659.186.985l.007.017,1.514-.723,0-.018C258.722,398.846,258.583,398.478,258.426,398.154Z" transform="translate(-202.853 -325.61)" fill="#ffb50c"/>
  <path id="Path_578" data-name="Path 578" d="M401.233,298.974c-.292.236-.662.089-1-.01l-5.77-1.607c-.338-.1-.727-.176-.849-.519l0,.014-.375,1.427v0a28.716,28.716,0,0,1-2.284,5.53c-.767.032-1.215.655-1.544,1.343l-.079.165c.153-.3.4-.536,1.02-.434a29.605,29.605,0,0,1-1.929,2.848h0l-.926,1.178c.339-.095.621.172.894.39l4.741,3.688c.284.221.616.434.594.81l.017.013,1.038-1.319-.013-.015c-.358.109-.643-.168-.919-.389L389.1,308.4c-.012-.01-.025-.018-.039-.028a30.1,30.1,0,0,0,2.175-3.208c.166.066.535.234.563.254l-.006-.008c1.212.587,2.585-.073,3.6-2.176l.5-1.02-.752-.63c.324,1.089-.916,3.6-2.939,2.569-.028-.014-.207-.094-.322-.146a29.973,29.973,0,0,0,2.252-5.551s.008,0,.012.009l5.77,1.6c.346.1.737.165.856.521l.017.009.475-1.616Z" transform="translate(-325.127 -249.797)" fill="#ffb50c"/>
  <path id="Path_579" data-name="Path 579" d="M127.679,175.817l3.439,1.9c.315.174.669.321.712.69l.011.012s.083-.192.176-.381h0c.039-.076.084-.161.131-.245l.012-.021v0a29.031,29.031,0,0,1,2.823-4.247L134,173.35a30.894,30.894,0,0,0-2.266,3.4l-3.494-1.935c-.317-.177-.68-.331-.719-.7l-.021-.009-.808,1.461.015.012C127.043,175.414,127.361,175.644,127.679,175.817Z" transform="translate(-117.275 -151.38)" fill="#ffb50c"/>
  <path id="Path_580" data-name="Path 580" d="M413.785,259.274a.6.6,0,0,0,.6-.617.628.628,0,1,0-.6.617Z" transform="translate(-345.561 -218.92)" fill="#ffb50c"/>
  <path id="Path_581" data-name="Path 581" d="M115.569,309.824a.589.589,0,1,0,.3,1.138.59.59,0,1,0-.3-1.138Z" transform="translate(-108.041 -260.13)" fill="#ffb50c"/>
  <path id="Path_582" data-name="Path 582" d="M113.8,303.173a.6.6,0,0,0,.449-.725.621.621,0,0,0-1.2.317A.6.6,0,0,0,113.8,303.173Z" transform="translate(-106.388 -253.926)" fill="#ffb50c"/>
  <path id="Path_583" data-name="Path 583" d="M130.685,343.7a.589.589,0,1,0,.817.243A.6.6,0,0,0,130.685,343.7Z" transform="translate(-120.185 -287.088)" fill="#ffb50c"/>
  <path id="Path_584" data-name="Path 584" d="M127.812,336.778a.621.621,0,0,0-1.1.565.621.621,0,0,0,1.1-.565Z" transform="translate(-117.238 -281.38)" fill="#ffb50c"/>
  <path id="Path_585" data-name="Path 585" d="M123.545,342.663a.588.588,0,1,0,.531,1.047.588.588,0,1,0-.531-1.047Z" transform="translate(-114.491 -286.26)" fill="#ffb50c"/>
  <path id="Path_586" data-name="Path 586" d="M272.6,427.017a.622.622,0,1,0,.569.642A.605.605,0,0,0,272.6,427.017Z" transform="translate(-233.079 -353.547)" fill="#ffb50c"/>
  <path id="Path_587" data-name="Path 587" d="M264.539,426.781a.623.623,0,1,0,.567.637A.607.607,0,0,0,264.539,426.781Z" transform="translate(-226.651 -353.358)" fill="#ffb50c"/>
  <path id="Path_588" data-name="Path 588" d="M432.2,200.99a.6.6,0,0,0,.371-.765.621.621,0,0,0-1.161.438A.6.6,0,0,0,432.2,200.99Z" transform="translate(-360.101 -172.501)" fill="#ffb50c"/>
  <path id="Path_589" data-name="Path 589" d="M434.644,207.431a.588.588,0,1,0,.787.329A.6.6,0,0,0,434.644,207.431Z" transform="translate(-362.38 -178.508)" fill="#ffb50c"/>
  <path id="Path_590" data-name="Path 590" d="M374.087,396.312a.606.606,0,0,0-.206.831.589.589,0,1,0,.206-.831Z" transform="translate(-314.212 -329.016)" fill="#ffb50c"/>
  <path id="Path_591" data-name="Path 591" d="M367.081,400.283a.617.617,0,1,0,.81.248A.6.6,0,0,0,367.081,400.283Z" transform="translate(-308.627 -332.181)" fill="#ffb50c"/>
  <path id="Path_592" data-name="Path 592" d="M411.156,235.081a.588.588,0,1,0-.724-.454A.6.6,0,0,0,411.156,235.081Z" transform="translate(-343.402 -199.651)" fill="#ffb50c"/>
  <path id="Path_593" data-name="Path 593" d="M412.752,242.984a.589.589,0,1,0-.721-.456A.6.6,0,0,0,412.752,242.984Z" transform="translate(-344.674 -205.948)" fill="#ffb50c"/>
  <path id="Path_594" data-name="Path 594" d="M164.857,182.39a.622.622,0,1,0-.837.149A.6.6,0,0,0,164.857,182.39Z" transform="translate(-146.793 -157.838)" fill="#ffb50c"/>
  <path id="Path_595" data-name="Path 595" d="M160.263,188.29a.589.589,0,1,0,.2.835A.609.609,0,0,0,160.263,188.29Z" transform="translate(-143.29 -163.206)" fill="#ffb50c"/>
  <path id="Path_596" data-name="Path 596" d="M301.353,395.919a.6.6,0,0,0,.674.533.621.621,0,0,0-.169-1.229A.609.609,0,0,0,301.353,395.919Z" transform="translate(-256.472 -328.203)" fill="#ffb50c"/>
  <path id="Path_597" data-name="Path 597" d="M181.45,161.042a.591.591,0,1,0,.5-.7A.607.607,0,0,0,181.45,161.042Z" transform="translate(-160.91 -141.009)" fill="#ffb50c"/>
  <path id="Path_598" data-name="Path 598" d="M427.757,332.665a.592.592,0,1,0,.3.8A.614.614,0,0,0,427.757,332.665Z" transform="translate(-356.52 -278.298)" fill="#ffb50c"/>
  <path id="Path_599" data-name="Path 599" d="M319.828,112.821a1.3,1.3,0,0,1,1.775-.224l1.713.971a1.027,1.027,0,0,1,.575,1.311l-.7,1.237a29.2,29.2,0,0,0-3.881-2.372Zm6.451,6.226a2.24,2.24,0,0,1,.555-.913,1.068,1.068,0,0,1,1.553-.11c.553.578.078,1.395-.377,1.834a1.225,1.225,0,0,1-.714.382.986.986,0,0,1-.819-.293A.949.949,0,0,1,326.279,119.047Zm-12.289-5.919c-.251.7-.69.9-1.085.751l-.374-.135-.036.1.619.22a1.554,1.554,0,0,0,2.135-1.072,28.937,28.937,0,0,1,9.939,5.915,2.259,2.259,0,0,0,.676,1.514,2.413,2.413,0,0,0,1.565.784l.012,0c.542.619,1.063,1.258,1.556,1.933l.879,1.257h.01c0-.362.431-.6.714-.8l4.8-3.378c.293-.2.6-.462.95-.335l.013-.013-.959-1.375-.021.013c0,.375-.346.564-.639.77l-4.8,3.376c-.037.025-.077.056-.116.08-.438-.6-.889-1.177-1.367-1.735a2.21,2.21,0,0,0,.536-.381,2.039,2.039,0,0,0-.01-3.075,2.154,2.154,0,0,0-3.126-.2,3.2,3.2,0,0,0-.437.565c-.427-.384-.874-.748-1.327-1.1l.877-1.484a1.807,1.807,0,0,0-1-2.28l-1.893-1.067c-.874-.5-1.568-.344-1.826.111l.493-.875-1.23-.7,0,.015c.16.339-.078.663-.25.972l-.989,1.749a28.509,28.509,0,0,0-2.711-1.1l.63-1.754c.119-.338.218-.725.579-.825l.008-.013-1.572-.568L315.2,109c.215.306.036.664-.082,1Z" transform="translate(-265.357 -100.078)" fill="#ffb50c"/>
  <path id="Path_600" data-name="Path 600" d="M183.83,374.284l-.54-.379a1.575,1.575,0,0,0-2.392.525l-.436.615-1.117,1.59c-.21.29-.4.632-.778.632l-.01.021,1.365.961.016-.015c-.127-.351.133-.646.347-.946l1.917-2.715c.425-.6.9-.677,1.241-.44l.326.232Z" transform="translate(-158.611 -310.939)" fill="#ffb50c"/>
  <path id="Path_601" data-name="Path 601" d="M345.811,383.984l-1.69-2.869c-.372-.633-.248-1.1.113-1.314l.346-.2-.05-.09-.567.334a1.576,1.576,0,0,0-.5,2.4l.378.649.989,1.672c.178.311.411.629.254.968l.015.019,1.443-.852-.015-.015C346.156,384.658,345.993,384.293,345.811,383.984Z" transform="translate(-289.765 -315.686)" fill="#ffb50c"/>
  <path id="Path_602" data-name="Path 602" d="M415.078,280.067l.747.105,1.918.274c.354.052.75.065.916.4l.022.005.24-1.658-.024,0c-.251.273-.635.175-.992.124l-3.3-.466c-.728-.108-1.013-.491-.961-.909l.058-.393-.1-.016-.086.651A1.575,1.575,0,0,0,415.078,280.067Z" transform="translate(-345.85 -234.406)" fill="#ffb50c"/>
  <path id="Path_603" data-name="Path 603" d="M270.831,96.661c.013.361.076.737-.224.96v.02s.3-.038.545-.046c.045,0,.084,0,.117,0a.4.4,0,0,1,.05,0l.006,0a29.041,29.041,0,0,1,8.058.919l.241-.871.31-1.16.949-3.568-1.269-.336a3.168,3.168,0,0,0-1.869-.106c-.648.194-1.007.735-1.241,1.605l-.379,1.4,2.225.442.581-.543-1.508-.326.163-.641c.29-1.083.757-1.343,1.774-1.115l.226.054-.826,3.1h0l-.243.934a30.177,30.177,0,0,0-6.541-.7l-.166-4c-.017-.354-.075-.75.224-.975v-.017l-1.675.068v.022c.315.2.287.6.3.953Z" transform="translate(-231.776 -86.298)" fill="#ffb50c"/>
  <path id="Path_604" data-name="Path 604" d="M291.857,94.111a.733.733,0,1,0-.77-.648A.714.714,0,0,0,291.857,94.111Z" transform="translate(-248.29 -87.066)" fill="#ffb50c"/>
  <path id="Path_605" data-name="Path 605" d="M412,200.021a1.961,1.961,0,0,0-2.031-.082l-1.345.5.779,2.1.851.149-.535-1.437.6-.231c1.061-.391,1.541-.156,1.941.807l.077.217-2.742,1.02a9.731,9.731,0,0,1,.358.919,28.876,28.876,0,0,1,1.17,11.6l-.012.026h.011v0l.923.065-.009-.285a.585.585,0,0,1,.619-.657l-.007-.006c1.344-.061,2.232-1.293,2.129-3.628l-.054-1.142-.966-.192c.688.808,1.02,3.5-1.23,3.749a.8.8,0,0,0-.363.184,29.514,29.514,0,0,0-.3-5.4l1.838-.418c.371-.085.767-.207,1.051.037l.02,0-.369-1.645-.021,0c-.14.317-.582.41-.929.487l-1.782.406a28.5,28.5,0,0,0-.827-3.353l2.591-.954-.452-1.24A3.221,3.221,0,0,0,412,200.021Z" transform="translate(-341.964 -172.383)" fill="#ffb50c"/>
  <path id="Path_606" data-name="Path 606" d="M356.807,378.146a1.97,1.97,0,0,0-.345-2.008l-.775-1.21-1.883,1.2.035.866,1.29-.83.354.544c.607.95.477,1.471-.376,2.068l-.2.118-1.579-2.469-.968.648.415.608,1.565,2.461,1.117-.7A3.136,3.136,0,0,0,356.807,378.146Z" transform="translate(-297.13 -312.033)" fill="#ffb50c"/>
  <path id="Path_607" data-name="Path 607" d="M149.118,143.167l1.273.283.687-.924-1.63-.343c-.382-.084-.518-.387-.309-.675a1.163,1.163,0,0,1,1.087-.366l2.514.569.124.031c.089-.1.177-.2.274-.294h0v-.006c.4-.426.8-.845,1.2-1.254.579-.568,1.185-1.12,1.8-1.631l-.012,0,.022-.008h-.057l-.278-.067a1.992,1.992,0,0,1-.578-.5l-2.133-2.4c-.233-.267-.526-.54-.439-.9l-.014-.016-1.251,1.105.01.018c.371-.042.6.281.837.554l2.207,2.521a1.42,1.42,0,0,1-.115.108c-.084.074-.157.151-.241.227-.136.133-.276.275-.416.411-.086.08-.169.163-.248.246-.211.21-.415.423-.625.649l-.268-.046-1.2-.264a2.934,2.934,0,0,0-2.87.884A1.255,1.255,0,0,0,149.118,143.167Z" transform="translate(-134.375 -120.544)" fill="#ffb50c"/>
  <path id="Path_608" data-name="Path 608" d="M106.954,206.59c-.1.66-.18,1.325-.238,1.992l.871.005c.058-.6.125-1.188.219-1.77l.239-1.376a29.027,29.027,0,0,1,1.213-4.327h0l.225-.593-.021,0c-.3.2-.661.026-.985-.1l-5.438-2.1c-.333-.128-.684-.183-.773-.548l-.023,0-.6,1.561.015.011c.314-.21.634-.078.965.053l5.439,2.094c.041.015.081.032.123.047-.156.461-.3.925-.431,1.4-.046-.016-.093-.033-.134-.045l-5.426-1.6c-.344-.1-.733-.179-.855-.536l-.073-.017-.475,1.607.07.02c.3-.231.661-.076,1,.025l5.428,1.6c.056.02.114.032.167.051-.111.47-.223.946-.313,1.418-.047-.005-.1-.015-.142-.022l-5.584-.98c-.353-.062-.747-.1-.908-.432l-.071-.016-.292,1.648.078.018c.256-.261.641-.151,1-.089l5.576.983C106.857,206.572,106.9,206.583,106.954,206.59Z" transform="translate(-96.124 -170.84)" fill="#ffb50c"/>
  <path id="Path_609" data-name="Path 609" d="M208.167,389.26l.653-1.277-1.984-1.022-.726.462,1.362.7-.3.575c-.517,1-1.029,1.153-1.975.714l-.2-.112,1.338-2.6-.014,0,.014-.017c.357-.641.818-.773,1.188-.571l.349.19.046-.088-.572-.317a1.5,1.5,0,0,0-2,.327l-1.712,3.225,1.169.61a3.153,3.153,0,0,0,1.8.51C207.285,390.52,207.751,390.065,208.167,389.26Z" transform="translate(-178.602 -320.581)" fill="#ffb50c"/>
  <path id="Path_610" data-name="Path 610" d="M527.912,306.52c-.715,1.685-1.233,2.7-2.6,2.868v.46h6.532v-.46c-.548-.132-1.529-.4-1.529-1.418a5.422,5.422,0,0,1,.522-1.842l1.592-3.753h8.4l1.494,3.753a5.728,5.728,0,0,1,.517,1.806c0,.925-.713,1.287-1.524,1.454v.46h8.551v-.493c-1.475-.349-1.854-1.121-2.863-3.525L538.9,286.4H536.7Zm8.811-14.156L539.85,300h-6.372Z" transform="translate(-434.969 -241.481)" fill="#182966"/>
  <path id="Path_611" data-name="Path 611" d="M775.845,292.4l-1.2,13.533c-.032.459-.093,1.088-.093,1.609,0,1.585.845,1.883,1.85,2.211v.5H769.93v-.5c1.852-.394,2.012-1.38,2.179-3.125l1.363-15.347c.032-.494.129-1.417.129-1.844,0-1.083-.453-1.713-1.853-1.974V287h6.374l6.993,16.231L792.175,287h6.113v.458c-.95.2-1.825.461-1.825,2.074,0,.593.066,1.251.129,1.88l1.5,15.212a7.788,7.788,0,0,0,.291,1.676,2.446,2.446,0,0,0,1.918,1.448v.5h-8.42v-.5c1.068-.228,1.885-.854,1.885-1.679a16.517,16.517,0,0,0-.1-1.682L792.338,292.4l-7.516,17.849h-1.238Z" transform="translate(-629.92 -241.956)" fill="#182966"/>
  <path id="Path_612" data-name="Path 612" d="M917.921,306.13c-.717,1.683-1.24,2.7-2.605,2.864v.464h6.534v-.464c-.552-.129-1.525-.4-1.525-1.413a5.377,5.377,0,0,1,.52-1.845l1.588-3.758h8.4l1.493,3.758a5.662,5.662,0,0,1,.519,1.809c0,.924-.709,1.284-1.525,1.45v.464h8.551v-.464c-1.562-.493-1.853-1.153-2.868-3.551l-8.091-19.432H926.7Zm8.812-14.158,3.118,7.637h-6.375Z" transform="translate(-745.789 -241.168)" fill="#182966"/>
  <path id="Path_613" data-name="Path 613" d="M1043.528,296.128c-2.47-1.347-4.52-2.927-4.52-6.151a7.1,7.1,0,0,1,.811-3.263c1.4-2.369,4.068-3.293,7.026-3.293a14.691,14.691,0,0,1,5.6,1.086v4.707h-.492a4.41,4.41,0,0,0-4.553-3.322c-2.242,0-4,1.319-4,3.458,0,2.007,1.465,2.8,3.839,4.047l1.1.6c1.758.955,4.811,2.6,4.811,6.581a6.934,6.934,0,0,1-2.464,5.334,9.578,9.578,0,0,1-6.087,1.846,15.821,15.821,0,0,1-2.5-.2,11.983,11.983,0,0,1-3.61-1.019v-4.673h.494a4.655,4.655,0,0,0,1.455,2.269,5.489,5.489,0,0,0,3.514,1.122c2.928,0,4.618-1.91,4.618-4.087,0-2.271-1.623-3.193-3.807-4.378Z" transform="translate(-843.955 -239.104)" fill="#182966"/>
  <path id="Path_614" data-name="Path 614" d="M1124.6,306.816c0,1.447-.065,2.469-1.985,2.83v.464h8.686v-.464c-1.727-.459-2.149-.822-2.149-3.291v-6.882c.62.032,1.24.065,1.562.065.652,0,1.17-.033,1.691-.065l3.87,7.142c1.17,2.209,2.307,3.5,5,3.5h2.706v-.464c-1.239-.459-1.631-.919-2.9-3.291l-4.3-8.1a5.422,5.422,0,0,0,1.984-1.35,6.06,6.06,0,0,0,1.625-4.149,5.679,5.679,0,0,0-2.83-5.04c-1.5-.852-2.956-.885-5.2-.885h-9.754v.493c1.953.333,1.985,1.253,1.985,3.063Zm4.552-17.482h2.178a4.7,4.7,0,0,1,3.061.755,3.642,3.642,0,0,1,1.4,3.1,3.6,3.6,0,0,1-2.925,3.687,8.4,8.4,0,0,1-1.79.166h-1.919Z" transform="translate(-911.002 -241.82)" fill="#182966"/>
  <path id="Path_615" data-name="Path 615" d="M1222.252,306.13c-.713,1.683-1.235,2.7-2.6,2.864v.464h6.536v-.464c-.554-.129-1.528-.4-1.528-1.413a5.328,5.328,0,0,1,.521-1.845l1.592-3.758h8.39l1.495,3.758a5.676,5.676,0,0,1,.521,1.809c0,.924-.715,1.284-1.526,1.45v.464h8.55v-.464c-1.566-.493-1.853-1.153-2.865-3.551l-8.095-19.432h-2.211Zm8.811-14.158,3.12,7.637h-6.368Z" transform="translate(-988.336 -241.168)" fill="#182966"/>
  <path id="Path_616" data-name="Path 616" d="M1342.509,289.993a3.622,3.622,0,0,0-.258-1.584,2.206,2.206,0,0,0-1.728-.923V287h15.417v4.51h-.486c-.393-1.713-.978-2.011-2.835-2.011h-5.56v7.31h4.3c2.344,0,2.987-.4,3.247-2.007h.491v6.484h-.491a2.544,2.544,0,0,0-.448-1.25c-.524-.693-1.143-.724-2.09-.724h-5.006v6.919c0,2.432.066,2.958,2.081,3.551v.464h-8.617v-.464c1.8-.493,1.986-1.053,1.986-3.358Z" transform="translate(-1084.669 -241.954)" fill="#182966"/>
  <path id="Path_617" data-name="Path 617" d="M648.282,291.124c0-1.812,0-2.866-2.081-3.293v-.461h8.682v.461c-1.755.331-2.015,1.181-2.015,3.293v14.059a5,5,0,0,0,.26,2.078c.456.853,1.265.886,2.6.886h4.685c1.883,0,2.633-.331,3.016-2.041h.486v4.514H646.2v-.5a2.422,2.422,0,0,0,1.556-.855c.461-.589.526-1.184.526-3.161Z" transform="translate(-531.311 -242.251)" fill="#182966"/>
  <path id="Path_618" data-name="Path 618" d="M666.609,111.739a2.319,2.319,0,1,1-2.332-2.335A2.311,2.311,0,0,1,666.609,111.739Z" transform="translate(-543.88 -100.417)" fill="#182966"/>
  <path id="Path_619" data-name="Path 619" d="M1387.824,86.513v-.461h-8.72v.461c2.009.294,2.071,1.58,2.071,3.19v15.664c0,2.135,0,2.858-2.071,3.456v.46h8.72v-.461c-1.909-.6-2.042-1.057-2.042-3.455V89.7C1385.782,87.6,1386.047,86.842,1387.824,86.513Z" transform="translate(-1115.417 -81.806)" fill="#182966"/>
  <path id="Path_620" data-name="Path 620" d="M575.578,110.315a12.362,12.362,0,0,0-4.407.564,5.677,5.677,0,0,0-3.75,5.638,6.652,6.652,0,0,0,.5,2.582,6.526,6.526,0,0,0,1.682,2.294c2.226,1.986,5.212,2.121,6.734,2.121.408,0,.76-.014,1.075-.028l1.417-2.562c-.176.013-1.765,0-1.925,0-3.182,0-4.775-1.62-4.775-4.207,0-3.78,3.247-3.879,4.374-3.879h2.584l-.015,12.514-35.209.092c-8.975.154-9.5-10.24-1.07-11.41,0-.177.009-.262.009-.439l-6.255-.008c-5.536,2.556-7.5,15.044,6.409,15.044h40.813V113.448c0-1.5.216-2.375,2.012-2.636v-.5Z" transform="translate(-440.587 -101.143)" fill="#182966"/>
  <path id="Path_621" data-name="Path 621" d="M888.364,106.934a4.07,4.07,0,0,1-3.2,1.6,3.951,3.951,0,0,1-3.25-1.969,9.284,9.284,0,0,1-1.133-4.238c0-2.361,1.254-4.942,4.095-4.942,3.291,0,4.376,3.73,4.376,6.341A5.071,5.071,0,0,1,888.364,106.934Zm-53.767-.828V101.7c0-2.412,2.645-4.409,5.86-4.409l8.119-.01c2.6,0,4.714,1.586,4.714,3.54l.006,5.288Zm80.638-19.593v-.461h-8.787v.461c1.778.329,2.044,1.18,2.044,3.288l-.024,13.44a4.954,4.954,0,0,1-.262,2.071c-.465.859-1.287.886-2.635.886H893.707a9.179,9.179,0,0,0,.572-3.279c0-5.595-3.873-8.7-9.166-8.7-5.109,0-9.471,3.308-9.471,8.729a8.553,8.553,0,0,0,.575,3.159l-18.2,0,.013-5.957c0-3.376-3.7-6.111-8.21-6.111H840.9c-4.152,0-6.319,1.969-6.319,4.115V94.039h-6.865v.477c2.064.3,2.137,1.62,2.137,3.283v8.309l-19.227,0s-.016-8.5-.016-8.8c.059-1.725.434-2.391,2.071-2.7V94.14h-8.888v.466c2.046.306,2.115,1.615,2.115,3.257,0,.114.016,14.038.016,14.038,0,3.02-1.42,4.367-3.142,4.367h-1.094v.467h2.148c4.092,0,6.789-2.477,6.791-7.453l67.636-.011a9.294,9.294,0,0,0,6.556,2.427,9.99,9.99,0,0,0,6.786-2.427l23.635.011v-.493a2.6,2.6,0,0,1-1.581-.858c-.457-.589-.528-1.184-.528-3.16V89.8C913.126,87.992,913.126,86.94,915.235,86.513Z" transform="translate(-655.228 -81.806)" fill="#182966"/>
  <rect id="Rectangle_228" data-name="Rectangle 228" width="179.436" height="1.21" transform="translate(91.796 39.42)" fill="#ffb50c"/>
  <path id="Path_622" data-name="Path 622" d="M990.114,418.687l-.329.29-.256-.232-.264.232-.4-.383.333-.282.244.231.267-.231Zm-.688,1.5-.731.4a.24.24,0,0,0-.131.164l1.005.152Zm.334-.87.335,1.657h.731v.62H989.72l-.08-.369-.194.283-1.423-.208.221-.685c.018-.036.035-.081.057-.136a.379.379,0,0,1,.185-.159l.865-.474-.032-.145Z" transform="translate(-803.734 -346.609)" fill="#182966"/>
  <path id="Path_623" data-name="Path 623" d="M1001.9,429.634l.335-.29.248.231.262-.231.4.382-.323.283-.252-.231-.269.231Zm.73-2.258.234.821h.7v.619h-1l-.064-.2-.176.2h-.944V428.2h1l-.13-.448Z" transform="translate(-814.38 -353.833)" fill="#182966"/>
  <path id="Path_624" data-name="Path 624" d="M1013.256,428.3l.32-.289.405.375-.319.3Zm2.045-1.715-.336.532a2.54,2.54,0,0,0-.486-.06,1.313,1.313,0,0,0-.927.357.817.817,0,0,1-.17.134.592.592,0,0,1-.2.023h-1.522v-.619h1.737a1.129,1.129,0,0,1,.308-.178,3.258,3.258,0,0,0-.6-.392,1.272,1.272,0,0,0-.51-.153.759.759,0,0,0-.125.019l.205-.2a.629.629,0,0,1,.43-.234,1.058,1.058,0,0,1,.432.151,6.982,6.982,0,0,0,1.085.489,2.8,2.8,0,0,0,.6.124Z" transform="translate(-822.575 -352.59)" fill="#182966"/>
  <path id="Path_625" data-name="Path 625" d="M1028.928,427.956a1.581,1.581,0,0,1,.366.968,2.136,2.136,0,0,1-.3,1.014c-.231.419-.472.629-.715.629a.571.571,0,0,1-.331-.171,2.284,2.284,0,0,1-.36-.407l-.045-.064a1.105,1.105,0,0,0,.445.1.866.866,0,0,0,.571-.245,1.729,1.729,0,0,0,.444-.647,2.143,2.143,0,0,0-.177-.4,3.658,3.658,0,0,0-.244-.358Z" transform="translate(-835.23 -354.295)" fill="#182966"/>
  <path id="Path_626" data-name="Path 626" d="M1040.517,420.6h-1a.424.424,0,0,1-.163-.037c-.059-.024-.088-.089-.092-.194l-.011-.125V417.6l.5-.529v2.654a.583.583,0,0,0,.022.209c.019.033.09.052.213.052h.526Z" transform="translate(-844.563 -345.617)" fill="#182966"/>
  <path id="Path_627" data-name="Path 627" d="M1046.037,417.168l-.315.289-.418-.378.33-.295Zm1.232-.193.064.953c.008.141.011.219.011.231a.449.449,0,0,1-.076.233,4.788,4.788,0,0,0,.562.238,2.445,2.445,0,0,0,.785.156l-.347.552a1.836,1.836,0,0,0-.49-.067,1.293,1.293,0,0,0-.892.33,2.17,2.17,0,0,1-.186.158.436.436,0,0,1-.2.03h-1.525v-.619h1.72a.89.89,0,0,1,.369-.2c-.073-.034-.2-.105-.39-.219-.1-.06-.215-.123-.344-.188a.909.909,0,0,0-.414-.122.567.567,0,0,0-.24.063l.347-.382a.37.37,0,0,1,.238-.147h.076a1.878,1.878,0,0,0,.291.02,1.956,1.956,0,0,0,.238-.02l-.059-1.183c-.123-.035-.186-.087-.186-.157a.338.338,0,0,1,.054-.125l.053-.093.226-.366a.314.314,0,0,0,.08.2.993.993,0,0,0,.278.156l.291.125-.205.482Z" transform="translate(-849.129 -344.807)" fill="#182966"/>
  <path id="Path_628" data-name="Path 628" d="M1064.77,420.82c.026-.337.039-.624.039-.856,0-.311-.016-.73-.044-1.263-.027-.435-.056-.762-.086-.981l.526-.652.125.778-.12.139.006.076c.04.475.06.869.06,1.178a3.069,3.069,0,0,1-.1.823A2.97,2.97,0,0,1,1064.77,420.82Z" transform="translate(-864.827 -345.617)" fill="#182966"/>
  <path id="Path_629" data-name="Path 629" d="M1078.114,421.435a.972.972,0,0,0-.128-.466.8.8,0,0,0-.449-.348.2.2,0,0,0-.071-.017c-.074,0-.139.08-.193.233a1.381,1.381,0,0,0-.09.4c0,.135.094.2.283.2Zm-.037-2.163-.328.289-.252-.231-.268.231-.394-.389.32-.282.244.233.272-.233Zm.176,2.781h-1c-.031,0-.063,0-.1-.006h-.056a.436.436,0,0,1-.167-.046c-.122-.065-.181-.211-.181-.435a4.464,4.464,0,0,1,.313-1.177c.084-.238.187-.356.315-.356a1.333,1.333,0,0,1,.692.376,1,1,0,0,1,.457.7,3.106,3.106,0,0,1-.115.459l-.086.287Z" transform="translate(-874.445 -347.07)" fill="#182966"/>
  <path id="Path_630" data-name="Path 630" d="M1085.452,427.956a1.593,1.593,0,0,1,.367.968,2.126,2.126,0,0,1-.3,1.014c-.229.419-.471.629-.716.629a.558.558,0,0,1-.327-.171,2.171,2.171,0,0,1-.362-.407l-.044-.064a1.1,1.1,0,0,0,.447.1.867.867,0,0,0,.568-.245,1.679,1.679,0,0,0,.441-.647,1.841,1.841,0,0,0-.175-.4,2.835,2.835,0,0,0-.245-.358Z" transform="translate(-880.278 -354.295)" fill="#182966"/>
  <path id="Path_631" data-name="Path 631" d="M1097.048,420.6h-1a.417.417,0,0,1-.164-.037c-.056-.024-.088-.089-.095-.194l0-.125V417.6l.5-.529v2.654a.577.577,0,0,0,.024.209c.017.033.089.052.212.052h.526Z" transform="translate(-889.619 -345.617)" fill="#182966"/>
  <path id="Path_632" data-name="Path 632" d="M1103.1,428.3l.323-.289.4.375-.321.3Zm2.044-1.715-.188.295-.073-.007c.011.052.066.079.164.079h.77v.619h-.867a1.016,1.016,0,0,1-.338-.039.423.423,0,0,1-.22-.317.157.157,0,0,0-.009-.058l-.026-.1h-.013a1.348,1.348,0,0,0-.949.357.847.847,0,0,1-.166.134.613.613,0,0,1-.2.023H1101.5v-.619h1.736a1.106,1.106,0,0,1,.31-.178,3.277,3.277,0,0,0-.6-.392,1.251,1.251,0,0,0-.51-.153.784.784,0,0,0-.124.019l.206-.2a.629.629,0,0,1,.428-.234,1.113,1.113,0,0,1,.433.151,6.59,6.59,0,0,0,1.085.489A2.823,2.823,0,0,0,1105.141,426.589Z" transform="translate(-894.177 -352.59)" fill="#182966"/>
  <path id="Path_633" data-name="Path 633" d="M1123.892,422.214l-.336.289-.252-.232-.264.232-.4-.383.324-.289.249.232.27-.232Zm-.408.743.237.821h.7v.619h-1l-.067-.2-.174.2h-.946v-.619h1l-.13-.448Z" transform="translate(-910.697 -349.413)" fill="#182966"/>
  <path id="Path_634" data-name="Path 634" d="M1134.254,417.5l-.212.484-.115-.043.109,1.625a2.083,2.083,0,0,1-.132.59l-.007.021-.095.281-.043.1h-1.228v-.62h1.092l-.176-2.18c-.111-.031-.164-.085-.164-.16a.238.238,0,0,1,.044-.116l.049-.075.231-.4a.319.319,0,0,0,.078.212.546.546,0,0,0,.169.1Z" transform="translate(-918.905 -345.57)" fill="#182966"/>
  <path id="Path_635" data-name="Path 635" d="M1143.241,420.82c.025-.337.04-.624.04-.856,0-.311-.017-.73-.046-1.263q-.037-.652-.088-.981l.528-.652.126.778-.118.139,0,.076c.044.475.061.869.061,1.178a3.086,3.086,0,0,1-.1.823A3.051,3.051,0,0,1,1143.241,420.82Z" transform="translate(-927.365 -345.617)" fill="#182966"/>
  <path id="Path_636" data-name="Path 636" d="M1149.278,426.9c-.049-.405-.171-.6-.362-.6a.311.311,0,0,0-.235.13.435.435,0,0,0-.1.277c0,.132.082.2.244.2Zm.046.619h-.447a2.818,2.818,0,0,1-.32-.012.455.455,0,0,1-.289-.161.473.473,0,0,1-.113-.313,1.421,1.421,0,0,1,.143-.588,2.061,2.061,0,0,1,.369-.557.4.4,0,0,1,.3-.139.54.54,0,0,1,.407.277,1.9,1.9,0,0,1,.328,1.112,2.086,2.086,0,0,1-.488,1.342c-.18.223-.345.333-.5.333-.172,0-.417-.206-.74-.621a1.254,1.254,0,0,0,.421.086.834.834,0,0,0,.548-.2A1.311,1.311,0,0,0,1149.323,427.522Z" transform="translate(-931.211 -352.538)" fill="#182966"/>
  <path id="Path_637" data-name="Path 637" d="M1163.259,427.956a1.6,1.6,0,0,1,.366.968,2.087,2.087,0,0,1-.3,1.014c-.23.419-.471.629-.714.629a.564.564,0,0,1-.33-.171,2.059,2.059,0,0,1-.362-.407l-.043-.064a1.088,1.088,0,0,0,.447.1.859.859,0,0,0,.565-.245,1.708,1.708,0,0,0,.445-.647,2.021,2.021,0,0,0-.178-.4,2.918,2.918,0,0,0-.246-.358Z" transform="translate(-942.289 -354.295)" fill="#182966"/>
  <path id="Path_638" data-name="Path 638" d="M1174.847,420.6h-1a.423.423,0,0,1-.162-.037c-.059-.024-.088-.089-.093-.194l-.007-.125V417.6l.5-.529v2.654a.619.619,0,0,0,.023.209c.019.033.091.052.214.052h.526Z" transform="translate(-951.621 -345.617)" fill="#182966"/>
  <path id="Path_639" data-name="Path 639" d="M1181.614,427.394v-.76c0-.147-.091-.219-.271-.219a.833.833,0,0,0-.717.408Zm1.1-.382v.62h-.837l-.233.483-1.4-.8-.208.321h-.717v-.62h.862a1.79,1.79,0,0,1,.553-.828,1.347,1.347,0,0,1,.859-.295.388.388,0,0,1,.344.13.779.779,0,0,1,.038.331v.662Z" transform="translate(-956.189 -352.648)" fill="#182966"/>
  <path id="Path_640" data-name="Path 640" d="M1196.886,418.5l-.314.289-.414-.375.32-.3Zm.363.754-.338.289-.249-.232-.261.232-.4-.383.32-.289.253.232.27-.232Zm-.407.743.236.821h.7v.619h-1l-.065-.2-.176.2h-.947v-.619h1l-.133-.448Z" transform="translate(-969.16 -346.452)" fill="#182966"/>
  <path id="Path_641" data-name="Path 641" d="M1207.558,422.214l-.336.289-.251-.232-.261.232-.4-.383.325-.289.248.232.272-.232Zm-.406.743.232.821h.7v.619h-1l-.064-.2-.174.2h-.944v-.619h1l-.131-.448Z" transform="translate(-977.379 -349.413)" fill="#182966"/>
  <path id="Path_642" data-name="Path 642" d="M1219.348,427.48h-1.156l-.1-.237-.192.237h-1.718v-.619h1.732l-.328-.735.308-.41.539,1.145h.923l-.331-.735.313-.41.534,1.145h.587v-.027a1.432,1.432,0,0,0-.019-.153,1.284,1.284,0,0,0-.225-.518l.34-.466a1.168,1.168,0,0,1,.306.771,3.066,3.066,0,0,1-.3,1.011h-.934l-.1-.237Z" transform="translate(-985.572 -352.496)" fill="#182966"/>
  <path id="Path_643" data-name="Path 643" d="M1241.865,417.541l.5-.527V419.7a.3.3,0,0,0,.046.2.525.525,0,0,0,.256.038h.427v.619h-.678l-.131-.006a.389.389,0,0,1-.335-.169,1,1,0,0,1-.082-.488v-.151l-.175.249-.093.14a1.018,1.018,0,0,1-.316.337.916.916,0,0,1-.355.109,5.95,5.95,0,0,1-.6.025c-.242,0-.471-.009-.683-.025a5.767,5.767,0,0,0,.846-.29c.163-.07.316-.146.461-.226a3.131,3.131,0,0,0,.336-.207l-.027-.087a4.786,4.786,0,0,0-.419-1.039,4.5,4.5,0,0,0-.428-.594c-.034.088-.081.134-.141.134a.144.144,0,0,1-.12-.085,1.073,1.073,0,0,1-.2-.461.751.751,0,0,1,.156-.321c.081-.121.148-.183.193-.183q.269,0,.646.746a7.263,7.263,0,0,1,.59,1.692l.124-.117.124-.124a.21.21,0,0,0,.085-.169v-.083l0-.08Z" transform="translate(-1004.267 -345.574)" fill="#182966"/>
  <path id="Path_644" data-name="Path 644" d="M1257.875,417.5l-.212.484-.115-.043.11,1.625a2.06,2.06,0,0,1-.132.59l-.007.021-.094.281-.044.1h-1.229v-.62h1.09l-.177-2.18c-.1-.031-.161-.085-.161-.16a.206.206,0,0,1,.043-.116l.048-.075.234-.4a.3.3,0,0,0,.076.212.546.546,0,0,0,.171.1Z" transform="translate(-1017.427 -345.57)" fill="#182966"/>
  <path id="Path_645" data-name="Path 645" d="M1272.854,433.136l.332-.29.249.233.269-.233.4.384-.325.289-.246-.231-.27.231Zm3.092-2.559v.619h-.8l-.045.1c-.034.081-.094.206-.177.383-.1.192-.173.345-.237.458a2.185,2.185,0,0,1-1.4.508.852.852,0,0,1-.655-.276,1.024,1.024,0,0,1-.254-.713,3.316,3.316,0,0,1,.381-1.281,3.372,3.372,0,0,0-.117.783q0,.869.749.868a1.592,1.592,0,0,0,.51-.1,1.373,1.373,0,0,0,.485-.272,1.636,1.636,0,0,0,.215-.234,1.4,1.4,0,0,0-.873-.239h-.045l.265-.6Z" transform="translate(-1030.36 -356.222)" fill="#182966"/>
  <path id="Path_646" data-name="Path 646" d="M1290.076,428.282l.322-.289.407.373-.32.306Zm-.592-1.422h1.054a1.225,1.225,0,0,0-.243-.7l.34-.465a1.173,1.173,0,0,1,.3.757,1.963,1.963,0,0,1-.141.617c-.025.08-.073.215-.156.407h-1.157Z" transform="translate(-1043.992 -352.496)" fill="#182966"/>
  <path id="Path_647" data-name="Path 647" d="M1297.011,428.659h.739v.62h-.745a2.365,2.365,0,0,1-.413.891c-.2.265-.389.4-.567.4s-.358-.145-.579-.434c-.02-.022-.056-.07-.112-.145a.274.274,0,0,1-.045-.064,1.108,1.108,0,0,0,.446.1.838.838,0,0,0,.565-.241,1.721,1.721,0,0,0,.447-.65,2.114,2.114,0,0,0-.178-.4,3.043,3.043,0,0,0-.243-.362l.349-.409A1.9,1.9,0,0,1,1297.011,428.659Z" transform="translate(-1048.62 -354.295)" fill="#182966"/>
  <path id="Path_648" data-name="Path 648" d="M1308.942,424.975a.472.472,0,0,0,.136-.257c0-.087-.065-.131-.2-.131a1.661,1.661,0,0,0-.225.025.561.561,0,0,1,.187.16A.585.585,0,0,1,1308.942,424.975Zm1.34.511v.62h-1.545l-.1-.213-.176.213h-1.551v-.62h1.551c-.11-.464-.357-.709-.746-.735l.3-.638a3.293,3.293,0,0,1,.865-.138c.448,0,.677.179.677.534a.633.633,0,0,1-.044.236,2.759,2.759,0,0,1-.406.665l-.057.076Z" transform="translate(-1057.882 -351.121)" fill="#182966"/>
  <path id="Path_649" data-name="Path 649" d="M1324.783,417.5l-.213.484-.112-.043.107,1.625a2.081,2.081,0,0,1-.132.59l-.007.021-.1.281-.041.1h-1.227v-.62h1.09l-.176-2.18c-.108-.031-.165-.085-.165-.16a.221.221,0,0,1,.046-.116l.049-.075.234-.4a.3.3,0,0,0,.074.212.58.58,0,0,0,.17.1Z" transform="translate(-1070.752 -345.57)" fill="#182966"/>
  <path id="Path_650" data-name="Path 650" d="M1333.776,420.82c.028-.337.039-.624.039-.856,0-.311-.016-.73-.043-1.263-.028-.435-.056-.762-.088-.981l.525-.652.126.778-.119.139.008.076c.04.475.061.869.061,1.178a3,3,0,0,1-.1.823A2.816,2.816,0,0,1,1333.776,420.82Z" transform="translate(-1079.218 -345.617)" fill="#182966"/>
  <path id="Path_651" data-name="Path 651" d="M1349.273,419.568a.652.652,0,0,0-.119-.36.3.3,0,0,0-.239-.16.277.277,0,0,0-.191.08.349.349,0,0,0-.148.262c0,.119.106.177.318.177Zm-.065-1.708-.323.288-.41-.375.323-.294Zm.183,3.07H1346.9a3.569,3.569,0,0,1-.539-.026.511.511,0,0,1-.33-.222.763.763,0,0,1-.129-.435,1.673,1.673,0,0,1,.335-1,1.808,1.808,0,0,0-.064.433.587.587,0,0,0,.248.566.788.788,0,0,0,.165.049c.125.01.259.015.41.015h2.322c.009-.126.018-.217.018-.267,0-.011-.007-.052-.012-.12l-.175.217h-.381a2.345,2.345,0,0,1-.315-.014.317.317,0,0,1-.22-.147.5.5,0,0,1-.089-.3,1.221,1.221,0,0,1,.191-.62c.2-.327.4-.492.612-.492a.322.322,0,0,1,.171.044,1.073,1.073,0,0,1,.4.5,1.726,1.726,0,0,1,.156.723,3.31,3.31,0,0,1-.255,1.04Z" transform="translate(-1088.954 -345.946)" fill="#182966"/>
  <path id="Path_652" data-name="Path 652" d="M1364.829,428.659h.738v.62h-.744a2.34,2.34,0,0,1-.412.891c-.2.265-.389.4-.565.4s-.358-.145-.579-.434c-.019-.022-.057-.07-.114-.145a.494.494,0,0,1-.045-.064,1.112,1.112,0,0,0,.446.1.846.846,0,0,0,.568-.241,1.786,1.786,0,0,0,.446-.65,2.19,2.19,0,0,0-.177-.4,2.74,2.74,0,0,0-.246-.362l.35-.409A1.9,1.9,0,0,1,1364.829,428.659Z" transform="translate(-1102.668 -354.295)" fill="#182966"/>
  <path id="Path_653" data-name="Path 653" d="M1379.011,426.419a1.182,1.182,0,0,0-.313-.563.686.686,0,0,0-.481-.236.549.549,0,0,0-.1.013,2.3,2.3,0,0,0-.427.221l-.91.565Zm-2.778,0,1.351-.859c.078-.048.181-.11.308-.189a1.183,1.183,0,0,1,.565-.225.9.9,0,0,1,.6.338.931.931,0,0,1,.3.682.864.864,0,0,1-.031.254h.811v.62H1375.9l-.061-.213-.181.213h-.9v-.62h.975l-.122-.414.406-.36Z" transform="translate(-1111.952 -352.055)" fill="#182966"/>
  <path id="Path_654" data-name="Path 654" d="M1402.526,417.423l-.216.5-.117-.05.146,1.67a.8.8,0,0,0,.062.282.732.732,0,0,0,.252.206l.44.263-.323.51-.723-.44-.092.127h-1.15v-.619h1.089l-.176-2.183c-.113-.038-.168-.087-.168-.135a.291.291,0,0,1,.043-.127l.05-.087.226-.4a.39.39,0,0,0,.061.2.715.715,0,0,0,.221.123Z" transform="translate(-1132.712 -345.513)" fill="#182966"/>
  <path id="Path_655" data-name="Path 655" d="M1413.966,420.82c.027-.337.039-.624.039-.856,0-.312-.015-.73-.043-1.263-.028-.435-.056-.762-.088-.981l.527-.652.124.777-.116.14.005.077c.04.474.062.867.062,1.178a2.274,2.274,0,0,1-.51,1.58Z" transform="translate(-1143.129 -345.617)" fill="#182966"/>
</svg>
