<svg xmlns="http://www.w3.org/2000/svg" xmlns:xlink="http://www.w3.org/1999/xlink" width="132.753" height="109.163" viewBox="0 0 132.753 109.163"><defs><clipPath id="a"><path d="M98.049,40.292h10.764V74.121l.513,12.814,21.015-2.05.513-55.356L109.838,10.051,84.21,2.363,67.3-.2,59.607,1.85,27.828,10.564,7.839,27.991S-1.9,62.332-1.9,63.87s16.4,31.266,20.5,32.8,33.316-8.2,35.879-12.3,4.1-9.739,7.176-10.764c3.075-1.538,23.065-4.1,23.578-4.1S98.049,40.292,98.049,40.292Z" transform="translate(1.9 0.2)"/></clipPath></defs><g clip-path="url(#a)"><g transform="translate(14.352 4.613)"><g transform="translate(0 0)"><g transform="translate(0 0)"><path d="M56.282-.3c-20.5,0-37.417,11.789-37.417,32.291v1.538H17.84C8.1,33.529-.1,36.6-.1,46.343V59.157A17.828,17.828,0,0,0,17.84,77.1h4.1A2.421,2.421,0,0,0,24.5,74.534V31.991c0-17.94,14.352-27.166,32.291-27.166s32.291,9.226,32.291,27.166V80.172a12.82,12.82,0,0,1-2.05,6.663A6.614,6.614,0,0,1,81.4,89.4H68.07a11.562,11.562,0,0,0-11.276-9.226A11.922,11.922,0,0,0,45.005,91.961,11.661,11.661,0,0,0,68.07,94.524H81.4a13.124,13.124,0,0,0,9.739-4.1c2.563-2.563,3.075-6.151,3.075-9.739V78.122h1.538a18.161,18.161,0,0,0,17.94-17.94V46.343c0-10.251-8.2-12.814-17.94-12.814H94.211V31.991C93.7,11.489,76.784-.3,56.282-.3ZM17.84,33.529h1.538V72.484H17.84A12.69,12.69,0,0,1,5.026,59.67V46.343A12.69,12.69,0,0,1,17.84,33.529Zm75.859,0h1.538A12.69,12.69,0,0,1,108.05,46.343V59.157A12.69,12.69,0,0,1,95.236,71.971H93.7ZM56.282,85.3a6.663,6.663,0,1,1-6.663,6.663A6.785,6.785,0,0,1,56.282,85.3Z" transform="translate(0.1 0.3)" fill="#313a78" stroke="#313a78" stroke-width="1"/></g></g></g></g><path d="M53.78,7.3V53.943a12.82,12.82,0,0,1-2.05,6.663,6.614,6.614,0,0,1-5.638,2.563H32.765a11.562,11.562,0,0,0-11.276-9.226A11.922,11.922,0,0,0,9.7,65.732a11.661,11.661,0,0,0,23.065,2.563H46.092a13.124,13.124,0,0,0,9.739-4.1c2.563-2.563,3.075-6.151,3.075-9.739V7.3H53.78Zm-32.8,51.769a6.663,6.663,0,0,1,0,13.327,6.663,6.663,0,0,1,0-13.327Z" transform="translate(49.757 31.142)" fill="#ffc226" stroke="#ffc226" stroke-width="1"/></svg>