<svg xmlns="http://www.w3.org/2000/svg" width="102.82" height="67.262" viewBox="0 0 102.82 67.262">
  <g id="menu-accounts" transform="translate(0 -4.3)">
    <g id="Group_85" data-name="Group 85" transform="translate(0 4.3)">
      <path id="Path_669" data-name="Path 669" d="M94.68,8.584a3.84,3.84,0,0,1,3.856,3.856V63.422a3.84,3.84,0,0,1-3.856,3.856H8.14a3.84,3.84,0,0,1-3.856-3.856V12.44A3.84,3.84,0,0,1,8.14,8.584H94.68m0-4.284H8.14A8.134,8.134,0,0,0,0,12.44V63.422a8.134,8.134,0,0,0,8.14,8.14H94.68a8.134,8.134,0,0,0,8.14-8.14V12.44A8.134,8.134,0,0,0,94.68,4.3Z" transform="translate(0 -4.3)" fill="#221f72"/>
    </g>
    <g id="Group_86" data-name="Group 86" transform="translate(9.857 12.748)">
      <path id="Path_670" data-name="Path 670" d="M5.119,6A2.947,2.947,0,0,0,2,9.119a2.947,2.947,0,0,0,3.119,3.119A2.947,2.947,0,0,0,8.238,9.119,2.947,2.947,0,0,0,5.119,6Z" transform="translate(-2 -6)" fill="#221f72"/>
    </g>
    <g id="Group_87" data-name="Group 87" transform="translate(19.215 12.748)">
      <path id="Path_671" data-name="Path 671" d="M8.119,6A2.947,2.947,0,0,0,5,9.119a2.947,2.947,0,0,0,3.119,3.119,2.947,2.947,0,0,0,3.119-3.119A2.947,2.947,0,0,0,8.119,6Z" transform="translate(-5 -6)" fill="#221f72"/>
    </g>
    <g id="Group_88" data-name="Group 88" transform="translate(28.645 12.748)">
      <path id="Path_672" data-name="Path 672" d="M11.07,6a1.875,1.875,0,0,0-1.248.312,3.1,3.1,0,0,0-1.56,4.055,3,3,0,0,0,2.807,1.871,1.875,1.875,0,0,0,1.248-.312,3.1,3.1,0,0,0,1.56-4.055A3,3,0,0,0,11.07,6Z" transform="translate(-8.023 -6)" fill="#221f72"/>
    </g>
    <g id="Group_89" data-name="Group 89" transform="translate(4.284 24.436)">
      <path id="Path_673" data-name="Path 673" d="M95.252,9H1v4.284H95.252Z" transform="translate(-1 -9)" fill="#221f72"/>
    </g>
    <g id="Group_90" data-name="Group 90" transform="translate(70.689 39.43)">
      <path id="Path_674" data-name="Path 674" d="M33.136,12H16v3.427H33.136Z" transform="translate(-16 -12)" fill="#ffc125"/>
    </g>
    <g id="Group_91" data-name="Group 91" transform="translate(70.689 46.285)">
      <path id="Path_675" data-name="Path 675" d="M33.136,14H16v3.427H33.136Z" transform="translate(-16 -14)" fill="#ffc125"/>
    </g>
    <g id="Group_92" data-name="Group 92" transform="translate(70.689 53.14)">
      <path id="Path_676" data-name="Path 676" d="M26.282,16H16v3.427H26.282Z" transform="translate(-16 -16)" fill="#ffc125"/>
    </g>
    <path id="Path_677" data-name="Path 677" d="M24.136,11.5H4.5V32.921H25.921v-12.5" transform="translate(10.494 27.93)" fill="none" stroke="#ffc125" stroke-miterlimit="10" stroke-width="4"/>
    <path id="Path_678" data-name="Path 678" d="M5.5,22.611l3.7,7.407L27.722,11.5" transform="translate(18.063 21.504)" fill="none" stroke="#ffc125" stroke-miterlimit="10" stroke-width="4"/>
  </g>
</svg>
