<svg xmlns="http://www.w3.org/2000/svg" width="113.817" height="108.28" viewBox="0 0 113.817 108.28"><g transform="translate(0 -12.456)"><g transform="translate(0 12.456)"><path d="M217.467,234.131a29.274,29.274,0,1,1,29.273-29.273A29.306,29.306,0,0,1,217.467,234.131Zm0-51.842a22.569,22.569,0,1,0,22.569,22.569A22.594,22.594,0,0,0,217.467,182.289Z" transform="translate(-146.359 -139.321)" fill="#182966"/><path d="M290.079,269.375c-4.256-.106-7.456-2.392-7.456-4.362,0-.985.879-2.462,1.97-2.462,1.337,0,2.391,2.286,5.487,2.638v-7c-3.2-1.2-6.823-2.568-6.823-7.07,0-4.467,3.306-6.4,6.823-6.859v-.985c0-.457.528-.879,1.2-.879.6,0,1.2.422,1.2.879v.915c2.286.07,6.015.738,6.015,2.779,0,.809-.563,2.427-1.864,2.427-.985,0-1.794-1.126-4.15-1.3v6.19c3.13,1.161,6.647,2.743,6.647,7.527,0,4.326-2.708,6.823-6.647,7.456v1.09c0,.457-.6.879-1.2.879-.668,0-1.2-.422-1.2-.879v-.984Zm.281-15.862V248.2c-1.759.281-2.814,1.126-2.814,2.462C287.547,252.211,288.743,252.88,290.361,253.513Zm1.829,5.522v6.12a2.874,2.874,0,0,0,2.638-2.884C294.827,260.547,293.7,259.7,292.189,259.035Z" transform="translate(-219.796 -191.282)" fill="#ffb50c"/><path d="M71.075,120.736a42.744,42.744,0,0,1-8.67-84.6L47.06,20.792a5.587,5.587,0,0,0-7.9,7.9,3.352,3.352,0,0,1-4.741,4.741L25.093,24.11a5.587,5.587,0,0,0-7.9,7.9L20.97,35.79l.014.014a3.352,3.352,0,0,1-4.741,4.741l-.009-.009a5.587,5.587,0,0,0-7.893,7.911L22.028,62.134a3.352,3.352,0,1,1-4.741,4.741L3.6,53.188A12.3,12.3,0,0,1,9.673,32.482,12.292,12.292,0,0,1,29.834,19.369l1.583,1.583A12.29,12.29,0,0,1,51.8,16.05L72.023,36.272a3.353,3.353,0,0,1-2.253,5.721l-1,.035a35.926,35.926,0,1,0,19.712,4.4,3.352,3.352,0,0,1,3.241-5.87,42.748,42.748,0,0,1-20.648,80.178Z" transform="translate(0 -12.456)" fill="#182966"/></g></g></svg>