<svg xmlns="http://www.w3.org/2000/svg" width="103.222" height="103.223" viewBox="0 0 103.222 103.223"><g transform="translate(-0.002 0)"><g transform="translate(3.515 4.058)"><path d="M65.275,115.828a47.849,47.849,0,1,1,47.849-47.849,2.991,2.991,0,0,1-5.982,0,41.867,41.867,0,1,0-41.867,41.867,2.991,2.991,0,0,1,0,5.982Z" transform="translate(-17.426 -20.13)" fill="#fff"/><path d="M122.492,158.6a33.4,33.4,0,1,1,0-66.8,2.991,2.991,0,0,1,0,5.982A27.419,27.419,0,1,0,149.911,125.2a2.991,2.991,0,0,1,5.982,0A33.439,33.439,0,0,1,122.492,158.6Z" transform="translate(-74.643 -77.348)" fill="#fff"/></g><circle cx="15.963" cy="15.963" r="15.963" transform="translate(35.4 35.946)" fill="#ffb50c"/><g transform="translate(0.002 0.499)"><path d="M179.71,201.367a18.952,18.952,0,1,1,18.952-18.952A18.974,18.974,0,0,1,179.71,201.367Zm0-31.923a12.971,12.971,0,1,0,12.97,12.971A12.985,12.985,0,0,0,179.71,169.444Z" transform="translate(-128.348 -131.006)" fill="#fff"/><path d="M242.919,15.393a2.991,2.991,0,0,1-2.991-2.991V5.468a2.991,2.991,0,1,1,5.982,0V12.4A2.991,2.991,0,0,1,242.919,15.393Z" transform="translate(-191.557 -2.477)" fill="#fff"/><path d="M242.919,460.853a2.991,2.991,0,0,1-2.991-2.991v-6.934a2.991,2.991,0,1,1,5.982,0v6.934A2.991,2.991,0,0,1,242.919,460.853Z" transform="translate(-191.557 -358.129)" fill="#fff"/><path d="M455.388,248.386h-6.934a2.991,2.991,0,1,1,0-5.982h6.934a2.991,2.991,0,0,1,0,5.982Z" transform="translate(-355.655 -194.033)" fill="#fff"/><path d="M9.926,248.386H2.993a2.991,2.991,0,1,1,0-5.982H9.926a2.991,2.991,0,1,1,0,5.982Z" transform="translate(-0.002 -194.033)" fill="#fff"/><path d="M237.891,146.21a2.991,2.991,0,0,1-2.115-5.106l27.071-27.072a2.991,2.991,0,1,1,4.23,4.23l-27.072,27.071A2.981,2.981,0,0,1,237.891,146.21Z" transform="translate(-187.543 -90.842)" fill="#fff"/></g><path d="M372.143,43.072l-12.057-2.959-2.959-12.057L370.344,14.84,375.2,25l10.157,4.859Z" transform="translate(-285.126 -11.848)" fill="#ffb50c"/><path d="M360.3,34.215a3.007,3.007,0,0,1-.713-.086l-12.057-2.96a2.992,2.992,0,0,1-2.192-2.192l-2.96-12.057a2.991,2.991,0,0,1,.79-2.828L356.381.876a2.991,2.991,0,0,1,4.813.824l4.4,9.205,9.205,4.4a2.991,2.991,0,0,1,.824,4.813L362.41,33.339A2.99,2.99,0,0,1,360.3,34.215Zm-9.584-8.423,8.66,2.126,9.036-9.036-6.344-3.035a2.991,2.991,0,0,1-1.408-1.408L357.622,8.1l-9.036,9.036Z" transform="translate(-273.279 0)" fill="#fff"/></g></svg>