<svg xmlns="http://www.w3.org/2000/svg" width="88.268" height="92.853" viewBox="0 0 88.268 92.853"><g transform="translate(-12.638)"><path d="M287.5,106.2a2.561,2.561,0,0,1-2.561-2.561V86.171a12.379,12.379,0,0,1,3.576-8.733l11.9-12.095a8.584,8.584,0,0,1,12.155-.015l.014.014a8.585,8.585,0,0,1,.006,12.146l-12.2,12.2c-.019,1.428-.04,4.6-.058,10.186l5.289.031,10.779-8.278a5.916,5.916,0,0,0,2.3-4.665V38.048a3.467,3.467,0,0,0-3.463-3.463h-.027a3.467,3.467,0,0,0-3.463,3.463V56.933a2.561,2.561,0,0,1-5.121,0V38.048a8.594,8.594,0,0,1,8.585-8.585h.027a8.594,8.594,0,0,1,8.584,8.585V86.961a11.07,11.07,0,0,1-4.3,8.727L308.052,104.5a2.535,2.535,0,0,1-1.574.53l-8.721-.05a2.561,2.561,0,0,1-2.546-2.567c.008-3.256.021-6.7.037-9.343.008-1.325.017-2.447.027-3.24.021-1.713.028-2.29.781-3.043l12.919-12.919a3.463,3.463,0,0,0,0-4.9l-.014-.014a3.463,3.463,0,0,0-4.9-.006L292.171,81.03a7.288,7.288,0,0,0-2.106,5.141v17.465A2.56,2.56,0,0,1,287.5,106.2Z" transform="translate(-222.923 -24.12)" fill="#fff"/><rect width="20.486" height="13.912" transform="translate(64.626 76.379)" fill="#ffb50c"/><g transform="translate(12.638 5.343)"><path d="M308.231,426.081H287.745a2.561,2.561,0,0,1-2.561-2.561V409.608a2.561,2.561,0,0,1,2.561-2.561h20.486a2.561,2.561,0,0,1,2.561,2.561V423.52A2.561,2.561,0,0,1,308.231,426.081Zm-17.925-5.121H305.67v-8.791H290.305Z" transform="translate(-235.757 -338.571)" fill="#fff"/><path d="M48.962,106.2a2.561,2.561,0,0,1-2.561-2.561V86.171A7.287,7.287,0,0,0,44.3,81.03l-11.9-12.095a3.463,3.463,0,0,0-4.883.015l-.026.025a3.463,3.463,0,0,0,.006,4.892L40.411,86.786c.753.753.76,1.33.781,3.043.01.794.018,1.915.027,3.24.016,2.639.028,6.087.037,9.343a2.561,2.561,0,0,1-2.546,2.567l-8.721.05h-.015a2.562,2.562,0,0,1-1.56-.53L16.94,95.688a11.069,11.069,0,0,1-4.3-8.727V38.048a8.594,8.594,0,0,1,8.584-8.585h.027a8.594,8.594,0,0,1,8.585,8.585V56.933a2.561,2.561,0,1,1-5.121,0V38.048a3.467,3.467,0,0,0-3.463-3.463h-.027a3.467,3.467,0,0,0-3.463,3.463V86.961a5.917,5.917,0,0,0,2.3,4.665L30.838,99.9l5.289-.031c-.018-5.584-.039-8.758-.058-10.186l-12.2-12.2a8.585,8.585,0,0,1,0-12.14l.026-.025a8.584,8.584,0,0,1,12.134.006L47.947,77.438a12.379,12.379,0,0,1,3.576,8.733v17.465A2.561,2.561,0,0,1,48.962,106.2Z" transform="translate(-12.638 -29.463)" fill="#fff"/></g><rect width="20.486" height="13.912" transform="translate(28.432 76.379)" fill="#ffb50c"/><path d="M108.659,426.081H88.173a2.561,2.561,0,0,1-2.561-2.561V409.608a2.561,2.561,0,0,1,2.561-2.561h20.486a2.561,2.561,0,0,1,2.561,2.561V423.52A2.561,2.561,0,0,1,108.659,426.081Zm-17.925-5.121H106.1v-8.791H90.733Z" transform="translate(-59.74 -333.228)" fill="#fff"/><circle cx="20.345" cy="20.345" r="20.345" transform="translate(36.427 2.561)" fill="#ffb50c"/><g transform="translate(33.878)"><path d="M152.65,45.811a22.905,22.905,0,0,1-16.2-39.1A22.905,22.905,0,1,1,168.846,39.1,22.756,22.756,0,0,1,152.65,45.811Zm0-40.689a17.784,17.784,0,0,0-12.575,30.359,17.784,17.784,0,0,0,25.15-25.15A17.667,17.667,0,0,0,152.65,5.121Z" transform="translate(-129.755)" fill="#fff"/><path d="M212.082,154.612c-.074,0-.149,0-.225-.01a2.561,2.561,0,0,1-2.33-2.773l.6-6.911a10.6,10.6,0,0,1,3.669-7.158l1.423-1.223a10.614,10.614,0,0,1,10.961-1.791l2.195.892.054.023,8.683,3.765a2.561,2.561,0,1,1-2.037,4.7l-8.656-3.753-2.167-.881a5.511,5.511,0,0,0-5.692.93l-1.423,1.223a5.5,5.5,0,0,0-1.905,3.717l-.6,6.91A2.562,2.562,0,0,1,212.082,154.612Z" transform="translate(-195.053 -109.663)" fill="#fff"/><path d="M134.768,36.216a2.561,2.561,0,0,1-.861-4.973l11.8-4.209a.425.425,0,0,0,.253-.554l-1.652-4.261a5.582,5.582,0,0,1,.427-4.877l4.976-8.22a2.561,2.561,0,0,1,4.381,2.652l-4.977,8.221a.427.427,0,0,0-.033.374l1.652,4.261a5.547,5.547,0,0,1-3.308,7.229l-11.8,4.209A2.547,2.547,0,0,1,134.768,36.216Z" transform="translate(-131.762 -6.455)" fill="#fff"/><path d="M254.675,53.925a2.563,2.563,0,0,1-2.534-2.952l.477-3.091A8.219,8.219,0,0,1,257.74,41.5l9.4-3.666A2.561,2.561,0,0,1,269,42.6l-9.4,3.666a3.083,3.083,0,0,0-1.921,2.395l-.477,3.091A2.561,2.561,0,0,1,254.675,53.925Z" transform="translate(-229.921 -30.827)" fill="#fff"/></g></g></svg>