<svg xmlns="http://www.w3.org/2000/svg" width="100.454" height="100.454" viewBox="0 0 100.454 100.454">
  <g id="planet-1" transform="translate(0 -0.001)">
    <path id="Path_955" data-name="Path 955" d="M34.148,342.934H68.5a4.914,4.914,0,0,1,4.913,4.913h0a4.914,4.914,0,0,1-4.913,4.913H39.35" transform="translate(-27.448 -275.65)" fill="#ffc226"/>
    <path id="Path_956" data-name="Path 956" d="M56.714,343.85H27.561a2.877,2.877,0,0,1,0-5.755H56.714a2.036,2.036,0,0,0,0-4.072H22.359a2.877,2.877,0,1,1,0-5.755H56.714a7.791,7.791,0,0,1,0,15.582Z" transform="translate(-15.66 -263.861)" fill="#313a78"/>
    <path id="Path_957" data-name="Path 957" d="M18.955,234.412H39.912a4.914,4.914,0,0,1,4.913,4.913h0a4.914,4.914,0,0,1-4.913,4.913H19.1" transform="translate(-15.236 -188.42)" fill="#ffc226"/>
    <path id="Path_958" data-name="Path 958" d="M28.124,235.33H7.307a2.877,2.877,0,1,1,0-5.755H28.124a2.036,2.036,0,1,0,0-4.072H7.166a2.877,2.877,0,1,1,0-5.755H28.124a7.791,7.791,0,1,1,0,15.581Z" transform="translate(-3.447 -176.633)" fill="#313a78"/>
    <path id="Path_959" data-name="Path 959" d="M36.389,125.891H66.449a4.914,4.914,0,0,1,4.913,4.913h0a4.914,4.914,0,0,1-4.913,4.913H31.593" transform="translate(-25.394 -101.19)" fill="#ffc226"/>
    <path id="Path_960" data-name="Path 960" d="M54.661,126.809H19.8a2.877,2.877,0,0,1,0-5.755H54.661a2.036,2.036,0,0,0,0-4.072H24.6a2.877,2.877,0,1,1,0-5.755H54.661a7.791,7.791,0,0,1,0,15.582Z" transform="translate(-13.606 -89.403)" fill="#313a78"/>
    <path id="Path_961" data-name="Path 961" d="M378.839,352.762H366.1a4.914,4.914,0,0,1-4.913-4.913h0a4.914,4.914,0,0,1,4.913-4.913h17.977" transform="translate(-290.319 -275.65)" fill="#ffc226"/>
    <path id="Path_962" data-name="Path 962" d="M367.052,343.85H354.31a7.791,7.791,0,0,1,0-15.582h17.977a2.877,2.877,0,1,1,0,5.755H354.31a2.036,2.036,0,0,0,0,4.072h12.742a2.878,2.878,0,0,1,0,5.755Z" transform="translate(-278.532 -263.861)" fill="#313a78"/>
    <path id="Path_963" data-name="Path 963" d="M384.575,135.72H366.1a4.914,4.914,0,0,1-4.913-4.913h0a4.914,4.914,0,0,1,4.913-4.913h13.682" transform="translate(-290.319 -101.192)" fill="#ffc226"/>
    <path id="Path_964" data-name="Path 964" d="M372.787,126.808H354.309a7.791,7.791,0,0,1,0-15.582h13.682a2.877,2.877,0,0,1,0,5.755H354.309a2.036,2.036,0,0,0,0,4.072h18.478a2.878,2.878,0,0,1,0,5.755Z" transform="translate(-278.531 -89.403)" fill="#313a78"/>
    <path id="Path_965" data-name="Path 965" d="M319.815,244.241H282.62a4.913,4.913,0,0,1-4.913-4.913h0a4.914,4.914,0,0,1,4.913-4.913h37.336" transform="translate(-223.221 -188.421)" fill="#ffc226"/>
    <g id="Group_335" data-name="Group 335" transform="translate(0 0.001)">
      <path id="Path_966" data-name="Path 966" d="M308.027,235.329h-37.2a7.791,7.791,0,0,1,0-15.582h37.336a2.877,2.877,0,1,1,0,5.755H270.832a2.036,2.036,0,0,0,0,4.072h37.2a2.878,2.878,0,0,1,0,5.755Z" transform="translate(-211.432 -176.633)" fill="#313a78"/>
      <path id="Path_967" data-name="Path 967" d="M50.227,100.455a50.191,50.191,0,0,1-49.88-44.3A50.827,50.827,0,0,1,0,50.228c0-1.508.067-3.019.2-4.491a50.227,50.227,0,0,1,100.059,0c.131,1.471.2,2.982.2,4.49a50.863,50.863,0,0,1-.347,5.928,49.988,49.988,0,0,1-8.533,22.592,2.878,2.878,0,0,1-4.734-3.273,44.224,44.224,0,0,0,7.551-19.99,45.1,45.1,0,0,0,.308-5.256c0-1.337-.059-2.677-.175-3.98a44.472,44.472,0,0,0-88.594,0c-.117,1.3-.176,2.643-.176,3.981a45.061,45.061,0,0,0,.308,5.255,44.508,44.508,0,0,0,60.38,36.169,2.878,2.878,0,0,1,2.1,5.358A49.993,49.993,0,0,1,50.227,100.455Z" transform="translate(0 -0.001)" fill="#313a78"/>
    </g>
  </g>
</svg>
