<svg xmlns="http://www.w3.org/2000/svg" width="1466" height="1061.505" viewBox="0 0 1466 1061.505"><g transform="translate(-234 -1010.495)"><g transform="translate(25 -118)"><text transform="translate(209 1955)" fill="#182966" font-size="24" font-family="Cairo-Bold, Cairo" font-weight="700"><tspan x="0" y="31" xml:space="preserve">       Libyan Foreign Bank (42.28%)</tspan><tspan font-family="Cairo-Light, Cairo" font-weight="300"><tspan x="0" y="71">Libyan foreign bank, which is fully Owned by </tspan><tspan x="0" y="111">the Central Bank of Libya with an authorized </tspan><tspan x="0" y="151">capital of 3000 million Libyan Dinars, owns </tspan><tspan x="0" y="191">42.28% in Al hotel-hub.</tspan></tspan></text><circle cx="14" cy="14" r="14" transform="translate(209 1965)" fill="#045d7b"/><g transform="translate(517)"><text transform="translate(707 1955)" fill="#182966" font-size="24" font-family="Cairo-Bold, Cairo" font-weight="700"><tspan x="0" y="31" xml:space="preserve">       Banque Exterieure d’Algerie (15.44%)</tspan><tspan font-family="Cairo-Light, Cairo" font-weight="300"><tspan x="0" y="71">A state and commercial bank, established in </tspan><tspan x="0" y="111">Algeria on October 01, 1967, which is wholly </tspan><tspan x="0" y="151">owned by the Algerian government, owns a </tspan><tspan x="0" y="191">shareholding of 15.44% in Al hotel-hub.</tspan></tspan></text><circle cx="14" cy="14" r="14" transform="translate(706 1965)" fill="#0dbeec"/></g><g transform="translate(-504)"><text transform="translate(1205 1955)" fill="#182966" font-size="24" font-family="Cairo-Bold, Cairo" font-weight="700"><tspan x="0" y="31" xml:space="preserve">       Emirates Investment Authority (42.28%)</tspan><tspan font-family="Cairo-Light, Cairo" font-weight="300"><tspan x="0" y="71">Emirates Investment Authority which is owned </tspan><tspan x="0" y="111">by the UAE federal government, owns a </tspan><tspan x="0" y="151">shareholding of 42.28% in Al hotel-hub.</tspan><tspan x="0" y="191"></tspan></tspan></text><circle cx="14" cy="14" r="14" transform="translate(1205 1965)" fill="#ffb50c"/></g></g><g transform="translate(414.295 957.228)"><g transform="translate(182.855 53.767)"><path d="M289.969,19.5a364.157,364.157,0,0,1,170.1,686.182L290.043,383.657Z" transform="translate(74.116 -19.5)" fill="#ffb50c" stroke="#fff" stroke-linejoin="round" stroke-width="1"/><path d="M671.365,613.6A364.157,364.157,0,0,1,200.984,85.967l300.674,205.44Z" transform="translate(-137.499 72.75)" fill="#045d7b" stroke="#fff" stroke-linejoin="round" stroke-width="1"/><path d="M164.171,177.916A364.157,364.157,0,0,1,464.134,19.5l.506,364.157Z" transform="translate(-100.481 -19.5)" fill="#0dbeec" stroke="#fff" stroke-linejoin="round" stroke-width="1"/></g><g transform="translate(121.705 11.818)"><g transform="translate(567.901 343.683)"><text transform="translate(0.1 30.271)" fill="#182966" font-size="23" font-family="Cairo-Bold, Cairo" font-weight="700"><tspan x="0" y="0">42.28%</tspan></text></g><g transform="translate(256 502.509)"><text transform="translate(0 30.445)" fill="#fff" font-size="23" font-family="Cairo-Bold, Cairo" font-weight="700"><tspan x="0" y="0">42.28%</tspan></text></g><g transform="translate(275.856 163)"><text transform="translate(0.145 29.954)" fill="#182966" font-size="23" font-family="Cairo-Bold, Cairo" font-weight="700"><tspan x="0" y="0">15.44%</tspan></text></g></g></g></g></svg>
