<svg xmlns="http://www.w3.org/2000/svg" width="98.344" height="98.344" viewBox="0 0 98.344 98.344"><g transform="translate(-0.5 -0.5)"><g transform="translate(1 1)"><g transform="translate(0 0)"><path d="M21.1,13.464h3.982V5.5H21.1Z" transform="translate(72.261 18.836)" fill="#f7bb00" stroke="#313678" stroke-width="1"/><path d="M93.362,80.972A12.368,12.368,0,0,1,80.972,93.362H24.336A12.368,12.368,0,0,1,11.947,80.972V76.99h7.964V73.008H12.389V52.654h7.964V48.672H12.389V28.318h7.964V24.336H12.389V16.371A12.368,12.368,0,0,1,24.778,3.982H81.415A12.368,12.368,0,0,1,93.8,16.371h3.54A16.333,16.333,0,0,0,80.972,0H24.336A16.333,16.333,0,0,0,7.964,16.371v7.964H0v3.982H7.964V48.672H0v3.982H7.964V73.008H0V76.99H7.964v3.982A16.333,16.333,0,0,0,24.336,97.344H80.972A16.333,16.333,0,0,0,97.344,80.972V40.707H93.362Z" fill="#313678" stroke="#313678" stroke-width="1"/></g></g><g transform="translate(29.318 21.354)"><path d="M56.072,58.254H7.4A23.548,23.548,0,0,1,23.329,35.688,16.335,16.335,0,0,1,32.178,5.6,16.062,16.062,0,0,1,48.55,21.971a16.19,16.19,0,0,1-7.522,13.717C49.435,38.785,56.072,47.635,56.072,58.254ZM19.789,21.971A12.368,12.368,0,0,0,32.178,34.361,12.1,12.1,0,0,0,44.568,21.971,12.1,12.1,0,0,0,32.178,9.582,12.1,12.1,0,0,0,19.789,21.971ZM31.736,37.9A20.4,20.4,0,0,0,11.825,54.272H51.647A20.4,20.4,0,0,0,31.736,37.9Z" transform="translate(-7.4 -5.6)" fill="#ffc226"/></g></g></svg>