<svg xmlns="http://www.w3.org/2000/svg" width="28.531" height="23.187" viewBox="0 0 28.531 23.187">
  <path id="Path_11" data-name="Path 11" d="M735.187,120.747A16.647,16.647,0,0,0,760.8,105.965a11.853,11.853,0,0,0,2.921-3.03,11.665,11.665,0,0,1-3.361.921,5.863,5.863,0,0,0,2.573-3.238,11.723,11.723,0,0,1-3.716,1.422,5.857,5.857,0,0,0-9.975,5.339,16.614,16.614,0,0,1-12.065-6.117,5.861,5.861,0,0,0,1.812,7.816,5.848,5.848,0,0,1-2.653-.732,5.86,5.86,0,0,0,4.7,5.814,5.851,5.851,0,0,1-2.642.1,5.855,5.855,0,0,0,5.467,4.065A11.763,11.763,0,0,1,735.187,120.747Z" transform="translate(-735.187 -100.191)" fill="#182966"/>
</svg>
